<?xml version="1.0" encoding="UTF-8" standalone="no"?>
<svg
   xmlns:dc="http://purl.org/dc/elements/1.1/"
   xmlns:cc="http://creativecommons.org/ns#"
   xmlns:rdf="http://www.w3.org/1999/02/22-rdf-syntax-ns#"
   xmlns:svg="http://www.w3.org/2000/svg"
   xmlns="http://www.w3.org/2000/svg"
   xmlns:xlink="http://www.w3.org/1999/xlink"
   xmlns:sodipodi="http://sodipodi.sourceforge.net/DTD/sodipodi-0.dtd"
   xmlns:inkscape="http://www.inkscape.org/namespaces/inkscape"
   viewBox="0 0 744.66 594.92"
   version="1.1"
   id="svg172"
   sodipodi:docname="details-1-office-worker.svg"
   inkscape:version="0.92.5 (2060ec1f9f, 2020-04-08)">
  <metadata
     id="metadata176">
    <rdf:RDF>
      <cc:Work
         rdf:about="">
        <dc:format>image/svg+xml</dc:format>
        <dc:type
           rdf:resource="http://purl.org/dc/dcmitype/StillImage" />
      </cc:Work>
    </rdf:RDF>
  </metadata>
  <sodipodi:namedview
     pagecolor="#ffffff"
     bordercolor="#666666"
     borderopacity="1"
     objecttolerance="10"
     gridtolerance="10"
     guidetolerance="10"
     inkscape:pageopacity="0"
     inkscape:pageshadow="2"
     inkscape:window-width="1920"
     inkscape:window-height="1024"
     id="namedview174"
     showgrid="false"
     inkscape:zoom="0.75470687"
     inkscape:cx="-52.924145"
     inkscape:cy="249.85939"
     inkscape:window-x="0"
     inkscape:window-y="30"
     inkscape:window-maximized="1"
     inkscape:current-layer="svg172" />
  <defs
     id="defs4">
    <linearGradient
       inkscape:collect="always"
       id="linearGradient1007">
      <stop
         style="stop-color:#008080;stop-opacity:1"
         offset="0"
         id="stop1003" />
      <stop
         style="stop-color:#5fd3bc;stop-opacity:1"
         offset="1"
         id="stop1005" />
    </linearGradient>
    <style
       id="style2">.cls-1,.cls-11,.cls-13,.cls-2,.cls-3{fill:none;stroke-linecap:round;}.cls-1,.cls-13,.cls-2{stroke:#000;}.cls-1,.cls-2,.cls-3{stroke-miterlimit:10;}.cls-1{stroke-width:4px;}.cls-13,.cls-2{stroke-width:2px;}.cls-3{stroke:#1f161e;}.cls-4{fill:#fbdc8e;}.cls-5{fill:#969696;}.cls-6{fill:#ab8de5;}.cls-7{fill:#78e5e1;}.cls-8{fill:#d8d8d8;}.cls-9{fill:#64ccc4;}.cls-10,.cls-12{fill:#fff;}.cls-11{stroke:#969696;stroke-width:0.82px;}.cls-11,.cls-13{stroke-linejoin:round;}.cls-12{font-size:7.3px;font-family:SofiaPro-Bold, Sofia Pro;font-weight:700;}.cls-14{fill:#1f161e;}.cls-15{fill:#55b79d;}.cls-16{fill:#f8cdba;}.cls-17{fill:#fa9e9f;}</style>
    <style
       id="style983">.cls-1{fill:#faefe9;}</style>
    <linearGradient
       inkscape:collect="always"
       xlink:href="#linearGradient1007"
       id="linearGradient970"
       gradientUnits="userSpaceOnUse"
       x1="11.085"
       y1="94.945999"
       x2="205.828"
       y2="94.945999"
       gradientTransform="matrix(3.1465916,0,0,3.1465916,28.876994,-13.50187)" />
    <linearGradient
       id="linear-gradient"
       x1="11.085"
       y1="94.945999"
       x2="205.828"
       y2="94.945999"
       gradientUnits="userSpaceOnUse">
      <stop
         offset="0"
         stop-color="#00bfc2"
         id="stop4" />
      <stop
         offset="0.246"
         stop-color="#00bbc5"
         id="stop6" />
      <stop
         offset="0.49"
         stop-color="#00afcf"
         id="stop8" />
      <stop
         offset="0.732"
         stop-color="#009bdf"
         id="stop10" />
      <stop
         offset="0.972"
         stop-color="#0080f5"
         id="stop12" />
      <stop
         offset="1"
         stop-color="#007cf8"
         id="stop14" />
    </linearGradient>
  </defs>
  <title
     id="title6">example-scene-2</title>
  <path
     class="cls-2"
     d="M 487.65002,222.31 C 379.13981,156.72874 327.91648,-44.753819 160.38251,75.647362 -7.1514756,196.04855 62.318964,443.4147 222.86438,503.24084 383.40974,563.06699 589.96145,529.26945 648.08844,418.13183 747.4106,228.22874 560.45901,266.3025 487.65002,222.31 Z"
     id="path38"
     style="fill:url(#linearGradient970);stroke-width:3.14659166;fill-opacity:1;stroke:none"
     inkscape:connector-curvature="0" />
  <ellipse
     cx="332.04001"
     cy="476.95999"
     rx="63.110001"
     ry="13.95"
     id="ellipse8" />
  <line
     class="cls-1"
     x1="332.04001"
     y1="476.95999"
     x2="296.59"
     y2="587.90997"
     id="line10"
     style="fill:none;stroke:#000000;stroke-width:4px;stroke-linecap:round;stroke-miterlimit:10" />
  <line
     class="cls-1"
     x1="332.04001"
     y1="476.95999"
     x2="367.48999"
     y2="587.90997"
     id="line12"
     style="fill:none;stroke:#000000;stroke-width:4px;stroke-linecap:round;stroke-miterlimit:10" />
  <line
     class="cls-2"
     x1="308.23001"
     y1="551.47998"
     x2="347.75"
     y2="526.14001"
     id="line14"
     style="fill:none;stroke:#000000;stroke-width:2px;stroke-linecap:round;stroke-miterlimit:10" />
  <line
     class="cls-2"
     x1="316.17001"
     y1="526.14001"
     x2="355.70001"
     y2="551.47998"
     id="line16"
     style="fill:none;stroke:#000000;stroke-width:2px;stroke-linecap:round;stroke-miterlimit:10" />
  <path
     class="cls-3"
     d="m 394.15,356.86 c -0.16,4.92 -0.09,22.15 -0.9,29.52"
     id="path18"
     inkscape:connector-curvature="0"
     style="fill:none;stroke:#1f161e;stroke-linecap:round;stroke-miterlimit:10" />
  <rect
     x="178.46001"
     y="132.63"
     width="12.66"
     height="34.509998"
     rx="6.3299999"
     ry="6.3299999"
     id="rect20" />
  <circle
     class="cls-4"
     cx="184.78999"
     cy="191.17"
     r="12.7"
     id="circle22"
     style="fill:#fbdc8e" />
  <path
     class="cls-4"
     d="m 609.37,342 h 6 a 2.39,2.39 0 0 0 2.38,-2.38 v -36.88 a 2.35,2.35 0 0 0 -0.7,-1.68 l -7.58,-7.58 a 2.37,2.37 0 0 0 -1.68,-0.7 H 585.4 a 2.39,2.39 0 0 0 -2.38,2.38 v 3.56"
     id="path24"
     inkscape:connector-curvature="0"
     style="fill:#fbdc8e" />
  <path
     d="m 88.06,430 c 19,3.6 15.61,117 -20.86,110.14 C 32.76,533.6 64.88,425.59 88.06,430 Z"
     id="path26"
     inkscape:connector-curvature="0" />
  <path
     class="cls-4"
     d="M 4.64,444 C 19.76,435.44 83.05,515.08 54.1,531.46 26.75,547 -13.77,454.44 4.64,444 Z"
     id="path28"
     inkscape:connector-curvature="0"
     style="fill:#fbdc8e" />
  <path
     class="cls-5"
     d="M 81.69,594.92 H 43.51 a 6.25,6.25 0 0 1 -6.21,-5.56 l -4.82,-43.28 a 6.26,6.26 0 0 1 6.21,-7 h 47.62 a 6.25,6.25 0 0 1 6.21,6.92 l -4.61,43.28 a 6.26,6.26 0 0 1 -6.22,5.64 z"
     id="path30"
     inkscape:connector-curvature="0"
     style="fill:#8b4200;fill-opacity:1" />
  <path
     class="cls-6"
     d="m 98.79,385.84 c 14.47,4.2 3.38,91.73 -24.33,83.67 -26.16,-7.6 6.72,-88.79 24.33,-83.67 z"
     id="path32"
     inkscape:connector-curvature="0"
     style="fill:#ab8de5" />
  <path
     class="cls-4"
     d="m 122.65,455.48 c 10,8.62 -30.68,74.56 -49.9,58 -18.15,-15.57 37.69,-68.48 49.9,-58 z"
     id="path34"
     inkscape:connector-curvature="0"
     style="fill:#fbdc8e" />
  <path
     class="cls-7"
     d="m 62.7,394.94 c 21.66,0 41.49,138.3 0,138.3 -39.18,0 -26.37,-138.3 0,-138.3 z"
     id="path36"
     inkscape:connector-curvature="0"
     style="fill:#33d18d;fill-opacity:1" />
  <rect
     class="cls-8"
     x="20.459999"
     y="529.71997"
     width="84.300003"
     height="15.48"
     rx="4.0500002"
     ry="4.0500002"
     id="rect38"
     style="fill:#8b4200;fill-opacity:1" />
  <path
     class="cls-8"
     d="m 599.29,298.72 h -22 a 2.68,2.68 0 0 0 -2.68,2.69 v 43.8 a 2.69,2.69 0 0 0 2.68,2.69 h 29.39 a 2.69,2.69 0 0 0 2.68,-2.69 v -36.4 a 2.68,2.68 0 0 0 -0.78,-1.9 l -7.4,-7.4 a 2.68,2.68 0 0 0 -1.89,-0.79 z"
     id="path40"
     inkscape:connector-curvature="0"
     style="fill:#d8d8d8" />
  <path
     class="cls-5"
     d="m 609.37,307.76 h -7.47 a 1.5,1.5 0 0 1 -1.5,-1.5 v -7.54"
     id="path42"
     inkscape:connector-curvature="0"
     style="fill:#969696" />
  <path
     class="cls-9"
     d="m 617.78,301.83 h -7.47 a 1.52,1.52 0 0 1 -1.51,-1.51 v -7.54"
     id="path44"
     inkscape:connector-curvature="0"
     style="fill:#64ccc4" />
  <rect
     class="cls-8"
     x="596.20001"
     y="215.83"
     width="148.46001"
     height="3.22"
     rx="1.23"
     ry="1.23"
     id="rect66"
     style="fill:#d8d8d8" />
  <rect
     class="cls-5"
     x="647.66998"
     y="151.89"
     width="13.99"
     height="63.939999"
     rx="2.5599999"
     ry="2.5599999"
     id="rect68"
     style="fill:#969696" />
  <rect
     class="cls-8"
     x="661.65997"
     y="166.88"
     width="7"
     height="48.950001"
     rx="2.1300001"
     ry="2.1300001"
     id="rect70"
     style="fill:#d8d8d8" />
  <rect
     class="cls-5"
     x="668.65997"
     y="166.88"
     width="7"
     height="48.950001"
     rx="2.0599999"
     ry="2.0599999"
     id="rect72"
     style="fill:#969696" />
  <rect
     class="cls-8"
     x="540.89099"
     y="438.01013"
     width="7"
     height="48.950001"
     rx="2.2"
     ry="2.2"
     transform="rotate(-24.66)"
     id="rect74"
     style="fill:#d8d8d8" />
  <circle
     class="cls-8"
     cx="654.65997"
     cy="195.74001"
     r="3.9100001"
     id="circle76"
     style="fill:#d8d8d8" />
  <rect
     class="cls-8"
     x="650.17999"
     y="201.99001"
     width="8.96"
     height="1.88"
     rx="0.94"
     ry="0.94"
     id="rect78"
     style="fill:#d8d8d8" />
  <rect
     class="cls-8"
     x="650.17999"
     y="206.8"
     width="8.96"
     height="1.88"
     rx="0.94"
     ry="0.94"
     id="rect80"
     style="fill:#d8d8d8" />
  <rect
     class="cls-5"
     x="578.53998"
     y="303.23999"
     width="8.96"
     height="1.88"
     rx="0.94"
     ry="0.94"
     id="rect82"
     style="fill:#969696" />
  <rect
     class="cls-5"
     x="578.53998"
     y="307.76001"
     width="8.96"
     height="1.88"
     rx="0.94"
     ry="0.94"
     id="rect84"
     style="fill:#969696" />
  <rect
     class="cls-5"
     x="578.13"
     y="315.48999"
     width="27.73"
     height="1.88"
     rx="0.94"
     ry="0.94"
     id="rect86"
     style="fill:#969696" />
  <rect
     class="cls-5"
     x="578.13"
     y="319.92999"
     width="27.73"
     height="1.88"
     rx="0.94"
     ry="0.94"
     id="rect88"
     style="fill:#969696" />
  <rect
     class="cls-5"
     x="578.13"
     y="324.37"
     width="27.73"
     height="1.88"
     rx="0.94"
     ry="0.94"
     id="rect90"
     style="fill:#969696" />
  <rect
     class="cls-5"
     x="664.42999"
     y="173.53999"
     width="1.46"
     height="35.619999"
     rx="0.73000002"
     ry="0.73000002"
     id="rect92"
     style="fill:#969696" />
  <rect
     class="cls-8"
     x="626.42999"
     y="217.44"
     width="11.24"
     height="4.98"
     rx="2.49"
     ry="2.49"
     id="rect94"
     style="fill:#d8d8d8" />
  <rect
     class="cls-8"
     x="703.19"
     y="217.44"
     width="11.24"
     height="4.98"
     rx="2.49"
     ry="2.49"
     id="rect96"
     style="fill:#d8d8d8" />
  <rect
     class="cls-8"
     x="427.14001"
     y="222.31"
     width="60.509998"
     height="41.810001"
     rx="12"
     ry="12"
     id="rect98"
     style="fill:#d8d8d8" />
  <rect
     class="cls-6"
     x="439.66"
     y="229.03999"
     width="9.1000004"
     height="28.35"
     id="rect100"
     style="fill:#ab8de5" />
  <rect
     class="cls-6"
     x="452.85001"
     y="247.89999"
     width="9.1000004"
     height="9.5"
     id="rect102"
     style="fill:#ab8de5" />
  <rect
     class="cls-6"
     x="466.03"
     y="239.89999"
     width="9.1000004"
     height="17.49"
     id="rect104"
     style="fill:#ab8de5" />
  <path
     class="cls-6"
     d="m 184.79,152.88 a 38.29,38.29 0 0 0 -38.3,38.29 h 76.6 a 38.29,38.29 0 0 0 -38.3,-38.29 z"
     id="path106"
     inkscape:connector-curvature="0"
     style="fill:#ab8de5" />
  <line
     class="cls-13"
     x1="184.78999"
     y1="139.92"
     x2="184.78999"
     y2="1"
     id="line108"
     style="fill:none;stroke:#000000;stroke-width:2px;stroke-linecap:round;stroke-linejoin:round" />
  <path
     class="cls-14"
     d="m 485.19,574.68 c 0,2.37 -1.39,17.32 1.38,18.7 2.77,1.38 33.22,2.22 34.6,0.83 1.38,-1.39 2.21,-4.29 1,-5.12 -1.21,-0.83 -13,-3.18 -14.6,-4.29 -1.6,-1.11 -3.81,-7 -3,-10.12"
     id="path110"
     inkscape:connector-curvature="0"
     style="fill:#1f161e" />
  <path
     class="cls-7"
     d="m 394.15,379.25 17.14,-6.15 c -0.74,-31.27 -8.05,-101.14 -18.43,-111.53 -2.44,-2.43 -50.7,-6.67 -59.31,-6.67 -51.38,0 -66.62,5.86 -70.49,9.74 -12,12 -15.74,67.6 -15.74,87.07 0,19.47 55,29.57 55,29.57 l 64.47,4.43 c 0,0 14.14,1.46 26.37,2.18 0.27,-3.75 0.99,-8.64 0.99,-8.64 z"
     id="path112"
     inkscape:connector-curvature="0"
     style="fill:#00b0cf;fill-opacity:1" />
  <path
     class="cls-14"
     d="m 445.22,397.38 c 4.69,-1.39 51.33,-9 61.49,1 10.16,10 42.14,153.37 42.14,156.67 H 523.1 l -34.76,-74.81"
     id="path114"
     inkscape:connector-curvature="0"
     style="fill:#303348;fill-opacity:1" />
  <path
     class="cls-15"
     d="m 275.41,384.63 c -1.17,5.85 -8.2,12.13 -8.2,44 0,44.07 36.1,45 49.06,45 40.38,0 105.71,-12 110.12,-14.2 2.93,4.9 56.86,115 57.11,117.46 h 24.83 c 0,0 -15.39,-164.72 -43.16,-183.4 -9.02,-6 -169.05,-12.42 -189.76,-8.86 z"
     id="path116"
     inkscape:connector-curvature="0"
     style="fill:#3d415b;fill-opacity:1" />
  <path
     class="cls-16"
     d="m 420.81,352.41 c -6.52,0 -11.9,1.55 -26.66,4.45 l -0.77,28.24 c 14,-5.64 17.25,-13.48 21.31,-13.48 10.14,0 15.44,5.23 21.43,5.23 4.18,0 11.7,-3.28 11.7,-7.74 0,-9.34 -18.93,-16.7 -27.01,-16.7 z"
     id="path118"
     inkscape:connector-curvature="0"
     style="fill:#f8cdba" />
  <path
     class="cls-14"
     d="m 524.56,553.07 c 0,2.38 -1.39,17.32 1.38,18.71 2.77,1.39 33.22,2.21 34.6,0.83 1.38,-1.38 2.21,-4.29 1,-5.12 -1.21,-0.83 -13,-3.19 -14.6,-4.3 -1.6,-1.11 -3.81,-7 -3,-10.12"
     id="path120"
     inkscape:connector-curvature="0"
     style="fill:#1f161e" />
  <path
     class="cls-16"
     d="m 342.64,261.55 c 0,3.77 -21.89,3.88 -21.89,0 v -30.66 h 21.89 z"
     id="path122"
     inkscape:connector-curvature="0"
     style="fill:#f8cdba" />
  <path
     class="cls-14"
     d="m 335.51,241 c -2,0 -14.76,5.64 -14.76,8.79 v -16.64 c 3.18,0 14.76,7.85 14.76,7.85 z"
     id="path124"
     inkscape:connector-curvature="0"
     style="fill:#1f161e" />
  <circle
     class="cls-16"
     cx="339.73999"
     cy="215.8"
     r="26.5"
     id="circle126"
     style="fill:#f8cdba" />
  <path
     class="cls-14"
     d="m 367.09,195 c -3.28,5.21 -10.14,7.6 -17.57,7.6 -6.33,0 -15.55,-1.84 -22.11,1.9 -3.55,2 -7.62,6.55 -8.44,15.66 0,1.56 -1.77,7.61 -1.77,9.56 0,1.33 -1.5,2.2 -4,2.2 -1.29,0 -3.84,-2.09 -3.84,-5.28 0,-3.69 1.47,-5 1.47,-8.13 0,-3.13 -3.83,-6.14 -3.83,-14.84 0,-12.53 8,-20.25 13.66,-20.25 5.16,0 6.78,1.2 7.43,1.71 0,-11.39 15,-16.59 20.95,-16.59 6.8,0 10,2.79 10,6.34 0,5.66 -2.7,10.47 -4.07,11.55 a 16.8,16.8 0 0 1 11.3,-4.31 c 7.79,0 10.41,5.12 10.41,8.62 0,7.61 -9.13,14.66 -12.53,14.66 a 36.33,36.33 0 0 0 -3,-5.19"
     id="path128"
     inkscape:connector-curvature="0"
     style="fill:#1f161e" />
  <circle
     class="cls-16"
     cx="319.79001"
     cy="219.3"
     r="5.6500001"
     id="circle130"
     style="fill:#f8cdba" />
  <ellipse
     class="cls-17"
     cx="366.5"
     cy="218.38"
     rx="4.3800001"
     ry="2.28"
     id="ellipse132"
     style="fill:#fa9e9f" />
  <ellipse
     class="cls-17"
     cx="338.95001"
     cy="218.38"
     rx="4.3800001"
     ry="2.28"
     id="ellipse134"
     style="fill:#fa9e9f" />
  <path
     class="cls-3"
     d="m 355.8,213.65 c 0.82,1.17 5,6.08 0.59,8.07"
     id="path136"
     inkscape:connector-curvature="0"
     style="fill:none;stroke:#1f161e;stroke-linecap:round;stroke-miterlimit:10" />
  <path
     class="cls-3"
     d="m 347.56,227.45 c -1.32,0 -3.35,-1.64 -4.42,-3.11"
     id="path138"
     inkscape:connector-curvature="0"
     style="fill:none;stroke:#1f161e;stroke-linecap:round;stroke-miterlimit:10" />
  <path
     class="cls-3"
     d="m 382.5,298.62 c 2,4.25 11.65,45.25 11.65,58.24"
     id="path140"
     inkscape:connector-curvature="0"
     style="fill:none;stroke:#1f161e;stroke-linecap:round;stroke-miterlimit:10" />
  <path
     class="cls-16"
     d="m 247.32,348.41 c 0,46.09 0.43,59.46 18.93,59.46 42.64,0 107.1,-35 118.59,-35 10.15,0 15.45,5.24 21.44,5.24 4.17,0 11.69,-3.29 11.69,-7.74 0,-9.35 -18.93,-16.71 -27,-16.71 -18.17,0 -90.68,17.52 -92.45,17.52 -1.77,0 -4.75,-0.77 -4.75,-3.75 0,-5.41 3.54,-17.91 4,-19 z"
     id="path142"
     inkscape:connector-curvature="0"
     style="fill:#f8cdba" />
  <path
     class="cls-3"
     d="m 308.42,308.21 c -1.22,3.51 -10.73,39.78 -11.83,44.2"
     id="path144"
     inkscape:connector-curvature="0"
     style="fill:none;stroke:#1f161e;stroke-linecap:round;stroke-miterlimit:10" />
  <rect
     class="cls-5"
     x="-507.99896"
     y="-744.73663"
     width="10.24"
     height="211.60001"
     rx="5.1199999"
     ry="5.1199999"
     transform="rotate(165.27)"
     id="rect146"
     style="fill:#3d415b;fill-opacity:1" />
  <rect
     class="cls-5"
     x="687.39166"
     y="218.87138"
     width="10.24"
     height="211.60001"
     rx="5.1199999"
     ry="5.1199999"
     transform="rotate(14.73)"
     id="rect148"
     style="fill:#3d415b;fill-opacity:1" />
  <rect
     class="cls-8"
     x="619.06488"
     y="236.83357"
     width="10.24"
     height="211.60001"
     rx="5.1199999"
     ry="5.1199999"
     transform="rotate(14.73)"
     id="rect150"
     style="fill:#3d415b;fill-opacity:1" />
  <rect
     class="cls-8"
     x="-443.21585"
     y="-720.99036"
     width="10.257393"
     height="211.95943"
     rx="5.1286964"
     ry="5.1286964"
     transform="rotate(165.54757)"
     id="rect152"
     style="fill:#3d415b;stroke-width:1.00169861;fill-opacity:1" />
  <rect
     class="cls-5"
     x="340.12418"
     y="310.17365"
     width="10.24"
     height="211.60001"
     rx="5.1199999"
     ry="5.1199999"
     transform="rotate(14.73)"
     id="rect154"
     style="fill:#3d415b;fill-opacity:1" />
  <rect
     class="cls-5"
     x="-159.88605"
     y="-653.22919"
     width="10.24"
     height="211.60001"
     rx="5.1199999"
     ry="5.1199999"
     transform="rotate(165.27)"
     id="rect156"
     style="fill:#3d415b;fill-opacity:1" />
  <rect
     class="cls-8"
     x="149.57001"
     y="378.14001"
     width="504.23001"
     height="15.15"
     rx="4.5300002"
     ry="4.5300002"
     id="rect158"
     style="fill:#3d415b;fill-opacity:1" />
  <rect
     class="cls-8"
     x="269.35492"
     y="328.78226"
     width="10.24"
     height="211.60001"
     rx="5.1199999"
     ry="5.1199999"
     transform="rotate(14.73)"
     id="rect160"
     style="fill:#3d415b;fill-opacity:1" />
  <rect
     class="cls-8"
     x="-89.115471"
     y="-634.62366"
     width="10.24"
     height="211.60001"
     rx="5.1199999"
     ry="5.1199999"
     transform="rotate(165.27)"
     id="rect162"
     style="fill:#3d415b;fill-opacity:1" />
  <path
     d="m 520.28,378.14 h -92.51 l 16.76,-57.64 a 6.73,6.73 0 0 1 6.48,-4.79 h 78.5 a 6.62,6.62 0 0 1 6.48,8.41 z"
     id="path164"
     inkscape:connector-curvature="0"
     style="fill:#c2dff1;fill-opacity:1" />
  <circle
     class="cls-10"
     cx="485.38"
     cy="346.92001"
     r="5.6599998"
     id="circle166"
     style="fill:#ffffff" />
  <rect
     x="373.85001"
     y="374.09"
     width="64.910004"
     height="4.0500002"
     id="rect168"
     style="fill:#c2dff1;fill-opacity:1" />
</svg>
