<?xml version="1.0" encoding="UTF-8" standalone="no"?>
<svg
   xmlns:dc="http://purl.org/dc/elements/1.1/"
   xmlns:cc="http://creativecommons.org/ns#"
   xmlns:rdf="http://www.w3.org/1999/02/22-rdf-syntax-ns#"
   xmlns:svg="http://www.w3.org/2000/svg"
   xmlns="http://www.w3.org/2000/svg"
   xmlns:sodipodi="http://sodipodi.sourceforge.net/DTD/sodipodi-0.dtd"
   xmlns:inkscape="http://www.inkscape.org/namespaces/inkscape"
   viewBox="0 0 917.04 773"
   version="1.1"
   id="svg187"
   sodipodi:docname="header-teamwork.svg"
   inkscape:version="0.92.5 (2060ec1f9f, 2020-04-08)">
  <metadata
     id="metadata191">
    <rdf:RDF>
      <cc:Work
         rdf:about="">
        <dc:format>image/svg+xml</dc:format>
        <dc:type
           rdf:resource="http://purl.org/dc/dcmitype/StillImage" />
      </cc:Work>
    </rdf:RDF>
  </metadata>
  <sodipodi:namedview
     pagecolor="#ffffff"
     bordercolor="#666666"
     borderopacity="1"
     objecttolerance="10"
     gridtolerance="10"
     guidetolerance="10"
     inkscape:pageopacity="0"
     inkscape:pageshadow="2"
     inkscape:window-width="1920"
     inkscape:window-height="1024"
     id="namedview189"
     showgrid="false"
     inkscape:zoom="0.86353014"
     inkscape:cx="-15.614804"
     inkscape:cy="430.23289"
     inkscape:window-x="0"
     inkscape:window-y="30"
     inkscape:window-maximized="1"
     inkscape:current-layer="svg187" />
  <defs
     id="defs4">
    <style
       id="style2">.cls-1{fill:#faefe9;}.cls-2,.cls-6{fill:#fff;}.cls-14,.cls-18,.cls-3{fill:none;}.cls-3{stroke:#000;}.cls-18,.cls-3{stroke-miterlimit:10;}.cls-4{fill:#f2f2f2;}.cls-10,.cls-5,.cls-7{fill:#50b89d;}.cls-5{opacity:0.7;}.cls-6{font-size:44.04px;font-family:ProximaNova-Medium, Proxima Nova;}.cls-7{opacity:0.44;}.cls-8{fill:#ab8de5;}.cls-9{fill:#73e5e2;}.cls-11{fill:#f98b67;}.cls-12{fill:#1f161e;}.cls-13{fill:#fbdc8e;}.cls-14{stroke:#fff;stroke-linejoin:round;stroke-width:0.4px;}.cls-14,.cls-18{stroke-linecap:round;}.cls-15{fill:#b37361;}.cls-16{fill:#f8cdba;}.cls-17{fill:#fa9e9f;}.cls-18{stroke:#1f161e;}.cls-19{fill:#969696;}</style>
    <style
       id="style1132">.cls-1{fill:#1f161e;}.cls-2{fill:#55b79d;}.cls-3{fill:#73e5e2;}.cls-4{fill:#f8cdba;}.cls-5{fill:#fa9e9f;}.cls-6,.cls-7,.cls-8{fill:none;stroke-linecap:round;}.cls-6,.cls-7{stroke:#1f161e;}.cls-6,.cls-8{stroke-miterlimit:10;}.cls-6{stroke-width:0.69px;}.cls-7{stroke-linejoin:round;}.cls-8{stroke:#000;stroke-width:3px;}</style>
    <style
       id="style1215">.cls-1{fill:#1f161e;}.cls-2{fill:#ab8fe2;}.cls-3{fill:#fadb93;}.cls-4{fill:#f8cdba;}.cls-5{fill:#fa9e9f;}.cls-6{fill:none;stroke:#1f161e;stroke-linecap:round;stroke-miterlimit:10;stroke-width:1.08px;}</style>
    <style
       id="style1280">.cls-1{fill:#d8d8d8;}.cls-2{fill:#969696;}</style>
  </defs>
  <title
     id="title6">example-scene-1</title>
  <rect
     class="cls-2"
     x="313.62003"
     y="228.52589"
     width="237"
     height="367"
     id="rect11"
     style="fill:#ffffff" />
  <line
     class="cls-3"
     x1="398.03"
     y1="442"
     x2="641.03003"
     y2="442"
     id="line13"
     style="fill:none;stroke:#000000;stroke-miterlimit:10" />
  <line
     class="cls-3"
     x1="398.03"
     y1="466"
     x2="641.03003"
     y2="466"
     id="line15"
     style="fill:none;stroke:#000000;stroke-miterlimit:10" />
  <line
     class="cls-3"
     x1="398.03"
     y1="490"
     x2="641.03003"
     y2="490"
     id="line17"
     style="fill:none;stroke:#000000;stroke-miterlimit:10" />
  <line
     class="cls-3"
     x1="398.03"
     y1="514"
     x2="641.03003"
     y2="514"
     id="line19"
     style="fill:none;stroke:#000000;stroke-miterlimit:10" />
  <circle
     class="cls-4"
     cx="432.12006"
     cy="335.52588"
     r="62"
     id="circle21"
     style="fill:#f2f2f2" />
  <rect
     class="cls-3"
     x="74.529999"
     y="87"
     width="159"
     height="159"
     id="rect31"
     style="fill:#ffffff;stroke:none;stroke-miterlimit:10;fill-opacity:1" />
  <polygon
     class="cls-7"
     points="110.73,204 197.33,204 154.03,129 "
     id="polygon41"
     style="opacity:0.43999999;fill:#00a0b5;fill-opacity:1;stroke:none" />
  <circle
     class="cls-11"
     cx="736.03003"
     cy="42.5"
     r="4.5"
     id="circle69"
     style="fill:#f98b67" />
  <circle
     class="cls-11"
     cx="745.53003"
     cy="61"
     r="4.5"
     id="circle71"
     style="fill:#f98b67" />
  <circle
     class="cls-11"
     cx="642.03003"
     cy="243.5"
     r="7"
     id="circle73"
     style="fill:#f98b67" />
  <circle
     class="cls-11"
     cx="683.03003"
     cy="267.5"
     r="7"
     id="circle75"
     style="fill:#f98b67" />
  <circle
     class="cls-11"
     cx="53.029999"
     cy="275.5"
     r="7"
     id="circle77"
     style="fill:#f98b67" />
  <path
     class="cls-12"
     d="m 579.79356,553.12606 v -1 l -2.4,-3 -5.55,-6.74 -5.9,-7.14 c 0,0 -5.68,-3.93 -7.14,-4.61 -5.32,-2.46 -10.56,-4.34 -16.82,-4.34 -3.85,0 -18.24,0.58 -18.27,3 0,3.59 20.15,17.18 34.93,23.78 6.49,0.05 21.15,0.05 21.15,0.05 z"
     id="path79"
     inkscape:connector-curvature="0"
     style="fill:#1f161e" />
  <path
     class="cls-13"
     d="m 576.74356,553.12606 c -20.51,-15.78 -62.38,-101.85 -51.64,-133.75 22.86,11.65 47.94,51.82 59.77,85.74 a 60.79,60.79 0 0 1 1.53,6.71 l 4.8,22 1.16,19.33 z"
     id="path81"
     inkscape:connector-curvature="0"
     style="fill:#fbdc8e" />
  <path
     class="cls-9"
     d="m 590.74356,553.12606 c -6.92,-5.62 -9.13,-22.26 -9.19,-28.47 -0.11,-11.59 1.67,-20.13 11.58,-32.88 9.91,-12.75 7.27,-33.9 20.43,-48.17 13.16,-14.27 21.88,-18.25 37.5,-18.25 15.62,0 20.58,25.32 20.5,31.69 -0.18,25.7 -16.37,29.34 -26.25,41.6 -7.17,8.9 -7.73,16.18 -9.9,20.34 -11.64,22.42 -21.1,30.85 -28.1,34.14"
     id="path83"
     inkscape:connector-curvature="0"
     style="fill:#90ba69;fill-opacity:1" />
  <path
     class="cls-14"
     d="m 594.56356,551.26606 c 0.2,-43.83 46.39,-109.66 56.26,-119.53"
     id="path85"
     inkscape:connector-curvature="0"
     style="fill:none;stroke:#ffffff;stroke-width:0.40000001px;stroke-linecap:round;stroke-linejoin:round" />
  <path
     class="cls-14"
     d="m 597.05356,531.34606 c -5.11,-5.57 -9.76,-21.36 -9.06,-25.46"
     id="path87"
     inkscape:connector-curvature="0"
     style="fill:none;stroke:#ffffff;stroke-width:0.40000001px;stroke-linecap:round;stroke-linejoin:round" />
  <path
     class="cls-14"
     d="m 583.96356,549.34606 c -7.24,-12.83 -41.59,-75.39 -54.4,-121.47"
     id="path89"
     inkscape:connector-curvature="0"
     style="fill:none;stroke:#ffffff;stroke-width:0.40000001px;stroke-linecap:round;stroke-linejoin:round" />
  <path
     class="cls-15"
     d="m 607.35356,553.12606 h 21.52 l -18,67 h -48.13 l -17.71,-67 h 62.32"
     id="path91"
     inkscape:connector-curvature="0"
     style="fill:#b37361" />
  <path
     class="cls-14"
     d="m 530.75356,530.65606 c 10.49,0.72 23.69,1.2 33,7.55"
     id="path93"
     inkscape:connector-curvature="0"
     style="fill:none;stroke:#ffffff;stroke-width:0.40000001px;stroke-linecap:round;stroke-linejoin:round" />
  <rect
     class="cls-15"
     x="26.01"
     y="536.34003"
     width="193.38"
     height="98.089996"
     id="rect135"
     style="fill:#4c2311;fill-opacity:1" />
  <path
     class="cls-12"
     d="m 314.66,490.37 c 0.84,5 15.1,119.31 17.41,121.2 2.31,1.89 26.84,6.08 28.94,2.94 0.42,-5 1,-84.72 2.3,-91.85"
     id="path137"
     inkscape:connector-curvature="0"
     style="fill:#09424c;fill-opacity:1" />
  <path
     class="cls-10"
     d="m 38.76,466.52 c -9.89,-4.87 10.73,91.67 65,91.67 54.27,0 145.62,-82.67 160.41,-82.67 32.65,0 109.94,64.1 116,64.1 4.64,-4.64 13.92,-12.76 13.92,-16 0,-3.24 -74,-125 -129.37,-125 -21.47,0.03 -203.63,78.93 -225.96,67.9 z"
     id="path139"
     inkscape:connector-curvature="0"
     style="fill:#0c5a71;fill-opacity:1" />
  <path
     class="cls-12"
     d="m 69.3,468.16 c 10.85,-2.46 24.35,-8.83 36.3,-15.34 -32.51,10.63 -59.15,17.5 -66.84,13.7 -5.24,-2.58 -1.92,23.26 10.4,48.15 C 46.93,509.86 43.75,474 69.3,468.16 Z"
     id="path141"
     inkscape:connector-curvature="0"
     style="fill:#09424c;fill-opacity:1" />
  <path
     class="cls-9"
     d="m 93.22,298.8 c 8.55,0.23 53.06,-1.08 65.26,10.54 9.05,8.62 37.19,82.75 41.53,108.78 C 181.11,427.73 44.79,493 2.6,464.3 1.67,442 6,353.35 33.59,306.86 43.68,300.14 85,298.59 93.22,298.8 Z"
     id="path143"
     inkscape:connector-curvature="0"
     style="fill:#ffd04d;fill-opacity:1" />
  <path
     class="cls-16"
     d="m 110.56,277.59 h -26 v 27.94 c 0,7 26,6.94 26,0 z"
     id="path145"
     inkscape:connector-curvature="0"
     style="fill:#f8cdba" />
  <path
     class="cls-12"
     d="m 84.56,294.46 c 0,-3.1 8.59,-10.89 13.9,-10.61 0.13,-3.45 -12.13,-8.41 -12.13,-8.41 l -1.77,4.77 z"
     id="path147"
     inkscape:connector-curvature="0"
     style="fill:#1f161e" />
  <path
     class="cls-12"
     d="m 137.79,277.59 a 39.08,39.08 0 0 0 0.88,-8.23 c 0,-20.62 -16.11,-37.34 -36,-37.34 -19.89,0 -36,16.72 -36,37.34 a 39.08,39.08 0 0 0 0.88,8.23 z"
     id="path149"
     inkscape:connector-curvature="0"
     style="fill:#1f161e" />
  <path
     class="cls-16"
     d="m 128.3,252.42 c -4.41,-0.67 -8.81,-4.14 -11.88,-6.41 C 98.92,258.83 87.71,259 86.5,259 c -1.21,0 -6.14,7.08 -8.41,7.88 l -0.2,-0.12 a 27.3,27.3 0 1 0 52.47,-14.33 8.36,8.36 0 0 1 -2.06,-0.01 z"
     id="path151"
     inkscape:connector-curvature="0"
     style="fill:#f8cdba" />
  <circle
     class="cls-12"
     cx="83.169998"
     cy="226.05"
     r="10.62"
     id="circle153"
     style="fill:#1f161e" />
  <path
     class="cls-18"
     d="m 87.9,258.43 a 4.47,4.47 0 0 0 0,8.93"
     id="path155"
     inkscape:connector-curvature="0"
     style="fill:none;stroke:#1f161e;stroke-linecap:round;stroke-miterlimit:10" />
  <path
     class="cls-18"
     d="m 121.94,259 c 1.31,1.75 4.68,4.82 0,8.07"
     id="path157"
     inkscape:connector-curvature="0"
     style="fill:none;stroke:#1f161e;stroke-linecap:round;stroke-miterlimit:10" />
  <path
     class="cls-18"
     d="m 107.75,269.41 c 0,1.31 0.56,4.44 3.37,5.25"
     id="path159"
     inkscape:connector-curvature="0"
     style="fill:none;stroke:#1f161e;stroke-linecap:round;stroke-miterlimit:10" />
  <ellipse
     class="cls-17"
     cx="99.040001"
     cy="267.57999"
     rx="4.1199999"
     ry="2.1400001"
     id="ellipse161"
     style="fill:#fa9e9f" />
  <ellipse
     class="cls-17"
     cx="129.67"
     cy="267.57999"
     rx="4.1199999"
     ry="2.1400001"
     id="ellipse163"
     style="fill:#fa9e9f" />
  <path
     class="cls-16"
     d="m 157.54,376.07 27.79,-7.15 C 188,373.46 201,418.07 201,418.07 l -42.9,18.08 c 0.56,-8.45 2.25,-47.15 -0.56,-60.08 z"
     id="path165"
     inkscape:connector-curvature="0"
     style="fill:#f8cdba" />
  <path
     class="cls-18"
     d="m 60.1,369.08 c 0,3.36 -2.83,16.15 -4.5,22.16"
     id="path167"
     inkscape:connector-curvature="0"
     style="fill:none;stroke:#1f161e;stroke-linecap:round;stroke-miterlimit:10" />
  <path
     class="cls-18"
     d="m 157.54,376.07 c -0.67,-5.29 -4.59,-35.1 -11.26,-50.79"
     id="path169"
     inkscape:connector-curvature="0"
     style="fill:none;stroke:#1f161e;stroke-linecap:round;stroke-miterlimit:10" />
  <path
     class="cls-16"
     d="m 157.54,376.07 27.79,-7.15 C 188,373.46 201,418.07 201,418.07 l -42.9,18.08 c 0.56,-8.45 2.25,-47.15 -0.56,-60.08 z"
     id="path171"
     inkscape:connector-curvature="0"
     style="fill:#f8cdba" />
  <path
     class="cls-12"
     d="m 381,537.26 c 0.62,1 8.9,11.16 11.83,11.27 2.93,0.11 20.72,-11.94 19.94,-14.53 -0.78,-2.59 -11.94,-0.9 -13.86,-1.81 -1.92,-0.91 -6.21,-5.19 -6.91,-7.09"
     id="path173"
     inkscape:connector-curvature="0"
     style="fill:#1f161e" />
  <path
     class="cls-12"
     d="m 337.25,612.63 c -0.21,1.11 -1.34,14.2 0.69,16.32 2.03,2.12 23.2,5.8 24.43,3.39 1.23,-2.41 -8,-8.94 -8.71,-10.92 -0.71,-1.98 -0.86,-8 0,-9.88"
     id="path175"
     inkscape:connector-curvature="0"
     style="fill:#09424c;fill-opacity:1" />
  <polygon
     class="cls-19"
     points="304.06,420.87 209.89,420.87 232.31,361.46 326.48,361.46 "
     id="polygon177"
     style="fill:#969696" />
  <rect
     class="cls-19"
     x="131.42"
     y="418.63"
     width="94.169998"
     height="2.24"
     id="rect179"
     style="fill:#969696" />
  <path
     class="cls-16"
     d="M 55.6,391.24 C 53.79,398 45,427 48.58,432 c 3.58,5 93.24,-6.33 117.23,-13.8 6.11,-2 10.64,-7.24 13.35,-7.92 a 14.31,14.31 0 0 1 16.16,10.22 c -9.58,4.64 -147.9,75.26 -192.72,43.83 -8.47,-6.07 6.39,-80.07 7.07,-83.8 7.57,0.91 45.93,10.71 45.93,10.71 z"
     id="path181"
     inkscape:connector-curvature="0"
     style="fill:#f8cdba" />
  <path
     class="cls-18"
     d="m 158.82,420 c 2.7,-0.64 5.06,-1.27 7,-1.87 6.11,-2 10.64,-7.24 13.35,-7.92 a 14.31,14.31 0 0 1 16.16,10.22"
     id="path183"
     inkscape:connector-curvature="0"
     style="fill:none;stroke:#1f161e;stroke-linecap:round;stroke-miterlimit:10" />
  <path
     id="path1221"
     d="m 860.74504,645.76566 c 0.56215,1.4929 4.27859,10.14515 3.62275,12.12841 -1.19717,3.58513 -19.46704,9.67657 -20.63298,9.15351 -1.16594,-0.52305 -2.3527,-2.1794 -1.80096,-2.98579 0.55174,-0.80638 7.06851,-5.21968 7.76599,-6.30938 0.69748,-1.08971 0.63502,-5.33955 -0.62461,-7.12667"
     class="cls-1"
     inkscape:connector-curvature="0"
     style="fill:#1f161e;stroke-width:1.06508291" />
  <path
     id="path1223"
     d="m 779.80588,344.51699 c -4.62212,4.35882 -71.59082,66.47195 -71.59082,99.10858 0,9.87272 19.05063,154.57451 21.19513,157.51672 h 16.55219 c 0,0 7.28713,-120.55396 1.48865,-144.11336 4.29941,-1.90698 43.72277,-16.28018 61.21187,-31.68859 17.48911,-15.40842 4.97607,-74.69921 -28.85702,-80.82335 z"
     class="cls-1"
     inkscape:connector-curvature="0"
     style="fill:#1a1a47;stroke-width:1.06508291;fill-opacity:1" />
  <path
     id="path1225"
     d="m 779.80588,344.51699 c -5.20509,0.95894 66.7605,306.53374 66.7605,306.53374 h 17.87428 c 0,0 -6.78744,-289.21834 -10.68085,-303.29732 -18.54053,-5.84081 -59.95224,-5.84081 -73.95393,-3.23642 z"
     class="cls-2"
     inkscape:connector-curvature="0"
     style="fill:#3d3d72;stroke-width:1.06508291;fill-opacity:1" />
  <path
     id="path1227"
     d="m 875.71489,227.31933 c -19.07146,-14.07898 -84.32248,-14.07898 -151.9262,-11.25664 -7.99502,0.3378 -30.67881,-49.91934 -40.34986,-57.0678 -10.64962,-7.86767 -27.61822,-0.7628 -27.61822,3.42167 0,9.13172 12.09663,9.34966 14.65754,12.30276 2.5609,2.95309 25.44248,73.2608 44.76378,83.61298 6.24611,3.35629 52.4465,2.24479 55.67365,6.61451 3.22716,4.36971 6.18365,76.85682 8.87989,79.54839 2.69624,2.69157 66.5627,4.92546 73.91229,3.26911 0.406,-5.63377 9.00481,-52.36028 11.15972,-56.02168 1.18676,-0.10897 18.37397,30.05403 18.36356,33.8571 0,5.01264 -29.40877,47.00983 -41.73442,54.20188 -3.19593,1.8525 -2.72747,7.12666 -2.1445,8.41251 0.58297,1.28585 4.98648,7.62793 7.73477,7.62793 2.74828,0 66.84377,-40.28636 68.29079,-70.64551 0.38518,-8.20547 -15.08435,-79.67916 -39.66279,-97.87721 z"
     class="cls-3"
     inkscape:connector-curvature="0"
     style="fill:#007d87;stroke-width:1.06508291;fill-opacity:1;stroke:none" />
  <path
     id="path1229"
     d="m 743.74501,599.30069 c 0,1.60186 0.52051,11.08229 -0.78076,12.68415 -2.3423,2.88772 -21.47621,1.73263 -22.3819,0.80638 -0.90568,-0.92625 -1.46783,-2.89861 -0.66625,-3.46526 0.80159,-0.56664 8.39061,-2.25569 9.36917,-3.00758 0.97855,-0.7519 2.41516,-4.75111 1.86342,-6.88693"
     class="cls-1"
     inkscape:connector-curvature="0"
     style="fill:#1a1a47;stroke-width:1.06508291;fill-opacity:1" />
  <path
     id="path1231"
     d="m 818.84406,222.82975 c -0.35394,4.29343 22.17369,6.6254 22.54846,2.01595 l 2.33188,-28.7028 -22.54846,-2.00506 z"
     class="cls-4"
     inkscape:connector-curvature="0"
     style="fill:#f8cdba;stroke-width:1.06508291" />
  <path
     id="path1233"
     d="m 842.32943,213.28394 c 0.20821,-2.54991 -4.65335,-11.84508 -9.06727,-10.74448 5.45494,-1.4929 8.63005,-7.94394 10.41019,-6.39656 z"
     inkscape:connector-curvature="0"
     style="stroke-width:1.06508291" />
  <ellipse
     id="circle1235"
     cy="173.27"
     cx="-824.15326"
     class="cls-4"
     style="fill:#f8cdba;stroke-width:1.06508291"
     transform="scale(-1,1)"
     rx="29.398354"
     ry="30.773241" />
  <ellipse
     id="ellipse1237"
     transform="matrix(-0.99604636,-0.08883493,-0.08112783,0.9967037,0,0)"
     ry="2.6689341"
     rx="4.9048867"
     cy="103.49851"
     cx="-805.77478"
     class="cls-5"
     style="fill:#fa9e9f;stroke-width:1.06509888" />
  <ellipse
     id="ellipse1239"
     transform="matrix(-0.99604636,-0.08883493,-0.08112783,0.9967037,0,0)"
     ry="2.6689341"
     rx="4.9048867"
     cy="103.5005"
     cx="-836.62817"
     class="cls-5"
     style="fill:#fa9e9f;stroke-width:1.06509888" />
  <path
     id="path1241"
     d="m 806.57046,170.28422 c -1.04102,1.28585 -6.18365,6.59271 -1.41579,9.36056"
     class="cls-6"
     inkscape:connector-curvature="0"
     style="fill:none;stroke:#1f161e;stroke-width:1.15028965px;stroke-linecap:round;stroke-miterlimit:10" />
  <path
     id="path1243"
     d="m 814.46138,187.21822 c 1.46783,0.0763 3.88299,-1.58007 5.20509,-3.19283"
     class="cls-6"
     inkscape:connector-curvature="0"
     style="fill:none;stroke:#1f161e;stroke-width:1.15028965px;stroke-linecap:round;stroke-miterlimit:10" />
  <path
     id="path1245"
     d="m 853.60366,157.89429 c 0.86405,-10.64641 -12.66919,-19.83262 -22.53804,-20.70438 -15.69856,-1.40572 -24.49516,-1.03522 -33.10438,-4.01011 -12.32566,-4.24985 -12.09663,13.07645 -12.2632,15.04881 -0.66625,8.29265 1.80096,13.69758 10.41018,15.78981 a 27.066473,28.332304 0 0 1 3.71644,-8.03112 11.045203,11.561759 0 0 1 7.57861,0.53396 c 2.15491,1.01342 19.99796,11.83418 33.74981,13.07645 1.61358,2.84412 4.29941,19.70185 2.54009,26.55608 4.01833,0.59934 12.55468,-12.45531 13.53323,-19.61467 a 15.105174,15.811605 0 0 0 -4.58048,-13.40336 c 0.27067,-1.50379 0.88487,-4.4024 0.95774,-5.24147 z"
     inkscape:connector-curvature="0"
     style="stroke-width:1.06508291" />
  <ellipse
     id="circle1247"
     cy="176.32118"
     cx="-841.89221"
     class="cls-4"
     style="fill:#f8cdba;stroke-width:1.06508291"
     transform="scale(-1,1)"
     rx="6.4751329"
     ry="6.7779589" />
  <path
     id="path1249"
     d="m 841.54867,379.79071 c 12.32565,-7.19204 41.72401,-49.18924 41.73442,-54.20188 0,-2.44093 -7.04769,-15.70263 -12.42976,-24.88883 l 34.43688,-19.49481 c 6.6417,20.70438 10.27485,39.97034 10.07706,43.99135 -1.43661,30.35915 -65.48004,70.58013 -68.22833,70.58013 -2.74829,0 -7.1518,-6.28759 -7.73477,-7.62793 -0.58297,-1.34033 -1.06184,-6.50553 2.1445,-8.35803 z"
     class="cls-4"
     inkscape:connector-curvature="0"
     style="fill:#f8cdba;stroke-width:1.06508291;stroke:none" />
  <path
     id="path1251"
     d="m 683.43883,159.03848 c 9.67105,7.14845 32.35484,57.38381 40.3915,57.06779 13.60611,-0.56664 5.76724,-0.28332 18.82161,-0.52305 l 0.0729,45.29899 c -15.14681,0 -23.12101,-0.20704 -27.43083,-2.50632 -19.33171,-10.35219 -42.2237,-80.63809 -44.76378,-83.61299 -2.54009,-2.97489 -14.65754,-3.17103 -14.65754,-12.30275 -0.0521,-4.18447 16.94778,-11.28934 27.56617,-3.42167 z"
     class="cls-4"
     inkscape:connector-curvature="0"
     style="fill:#f8cdba;stroke-width:1.06508291;stroke:none" />
  <rect
     id="rect1286"
     ry="1.9601189"
     rx="1.9601189"
     height="5.1313682"
     width="236.58476"
     y="196.22119"
     class="cls-1"
     x="445.14566"
     style="fill:#4c2311;stroke-width:1.59359264;fill-opacity:1" />
  <rect
     id="rect1288"
     ry="4.079597"
     rx="4.079597"
     height="101.89431"
     width="22.294359"
     x="527.16785"
     class="cls-2"
     y="94.326881"
     style="fill:#008080;stroke-width:1.59359264;fill-opacity:1" />
  <rect
     id="rect1290"
     ry="3.3943524"
     rx="3.3943524"
     height="78.006355"
     width="11.155149"
     y="118.21484"
     x="549.46222"
     class="cls-1"
     style="fill:#ffd04d;stroke-width:1.59359264;fill-opacity:1" />
  <rect
     id="rect1292"
     ry="3.2828007"
     rx="3.2828007"
     height="78.006355"
     width="11.155149"
     y="118.21484"
     x="560.61737"
     class="cls-2"
     style="fill:#008080;stroke-width:1.59359264;fill-opacity:1" />
  <rect
     id="rect1294"
     transform="rotate(-24.660001)"
     ry="3.5059037"
     rx="3.5059037"
     height="78.006355"
     width="11.155148"
     y="353.11859"
     x="464.68317"
     class="cls-1"
     style="fill:#00bfd8;stroke-width:1.59359252;fill-opacity:1" />
  <circle
     id="circle1296"
     r="6.230947"
     cy="164.20592"
     cx="538.30707"
     class="cls-1"
     style="fill:#d8d8d8;stroke-width:1.59359264" />
  <rect
     id="rect1298"
     ry="1.497977"
     rx="1.497977"
     height="2.995954"
     width="14.27859"
     y="174.14993"
     x="531.18372"
     class="cls-1"
     style="fill:#d8d8d8;stroke-width:1.59359264" />
  <rect
     id="rect1300"
     ry="1.497977"
     rx="1.497977"
     height="2.995954"
     width="14.27859"
     y="181.83105"
     x="531.18372"
     class="cls-1"
     style="fill:#d8d8d8;stroke-width:1.59359264" />
  <rect
     id="rect1302"
     ry="1.1633227"
     rx="1.1633227"
     height="56.763767"
     width="2.3266454"
     y="128.82817"
     x="553.87646"
     class="cls-2"
     style="fill:#969696;stroke-width:1.59359264" />
  <rect
     id="rect1304"
     ry="3.9680455"
     rx="3.9680455"
     height="7.9360909"
     width="17.91198"
     y="198.78688"
     x="493.31995"
     class="cls-1"
     style="fill:#4c2311;stroke-width:1.59359264;fill-opacity:1" />
  <rect
     id="rect1306"
     ry="3.9680455"
     rx="3.9680455"
     height="7.9360909"
     width="17.91198"
     y="198.78688"
     x="615.6441"
     class="cls-1"
     style="fill:#4c2311;stroke-width:1.59359264;fill-opacity:1" />
</svg>
