<?xml version="1.0" encoding="UTF-8" standalone="no"?>
<svg
   xmlns:dc="http://purl.org/dc/elements/1.1/"
   xmlns:cc="http://creativecommons.org/ns#"
   xmlns:rdf="http://www.w3.org/1999/02/22-rdf-syntax-ns#"
   xmlns:svg="http://www.w3.org/2000/svg"
   xmlns="http://www.w3.org/2000/svg"
   xmlns:sodipodi="http://sodipodi.sourceforge.net/DTD/sodipodi-0.dtd"
   xmlns:inkscape="http://www.inkscape.org/namespaces/inkscape"
   id="svg863"
   version="1.1"
   viewBox="0 0 460.79254 129.73442"
   height="490.33484"
   width="1741.5782"
   sodipodi:docname="icon-simple.svg"
   inkscape:version="0.92.5 (2060ec1f9f, 2020-04-08)">
  <sodipodi:namedview
     pagecolor="#ffffff"
     bordercolor="#666666"
     borderopacity="1"
     objecttolerance="10"
     gridtolerance="10"
     guidetolerance="10"
     inkscape:pageopacity="0"
     inkscape:pageshadow="2"
     inkscape:window-width="1920"
     inkscape:window-height="1024"
     id="namedview902"
     showgrid="false"
     fit-margin-top="0"
     fit-margin-left="0"
     fit-margin-right="0"
     fit-margin-bottom="0"
     inkscape:zoom="0.28059372"
     inkscape:cx="685.39645"
     inkscape:cy="759.40042"
     inkscape:window-x="0"
     inkscape:window-y="331"
     inkscape:window-maximized="1"
     inkscape:current-layer="text842"
     units="px" />
  <defs
     id="defs857" />
  <metadata
     id="metadata860">
    <rdf:RDF>
      <cc:Work
         rdf:about="">
        <dc:format>image/svg+xml</dc:format>
        <dc:type
           rdf:resource="http://purl.org/dc/dcmitype/StillImage" />
        <dc:title></dc:title>
      </cc:Work>
    </rdf:RDF>
  </metadata>
  <g
     aria-label="OPENSchool"
     transform="matrix(1.9021387,0,0,1.9021387,-879.82414,-2691.3966)"
     style="font-style:normal;font-weight:normal;font-size:40px;line-height:1.25;font-family:sans-serif;letter-spacing:0px;word-spacing:0px;fill:#1a1a1a;fill-opacity:1;stroke:none"
     id="flowRoot966">
    <g
       aria-label="john"
       style="font-style:normal;font-weight:normal;font-size:70.0083847px;line-height:1.25;font-family:sans-serif;letter-spacing:0px;word-spacing:0px;fill:#307f96;fill-opacity:1;stroke:none;stroke-width:1.75020969"
       id="text842">
      <path
         inkscape:connector-curvature="0"
         id="path821"
         style="font-style:normal;font-variant:normal;font-weight:300;font-stretch:normal;font-size:95.52449036px;line-height:1.25;font-family:Poppins;-inkscape-font-specification:'Poppins, Light';font-variant-ligatures:normal;font-variant-caps:normal;font-variant-numeric:normal;font-feature-settings:normal;text-align:start;letter-spacing:0px;word-spacing:0px;writing-mode:lr-tb;text-anchor:start;fill:#000000;fill-opacity:1;stroke:none;stroke-width:4.17969704"
         d="m 497.50665,1415.696 v 50.5324 q 0,7.642 -4.6807,12.3227 -4.6807,4.5852 -12.51371,4.5852 -8.11958,0 -12.99133,-4.8718 -4.77623,-4.9673 -4.77623,-13.3734 h 6.78224 q 0.0955,5.4449 2.67469,8.8838 2.67469,3.4389 8.31063,3.4389 5.34937,0 7.92853,-3.1524 2.57916,-3.1523 2.57916,-7.833 v -50.5324 z" />
      <path
         inkscape:connector-curvature="0"
         id="path823"
         style="font-style:normal;font-variant:normal;font-weight:300;font-stretch:normal;font-size:95.52449036px;line-height:1.25;font-family:Poppins;-inkscape-font-specification:'Poppins, Light';font-variant-ligatures:normal;font-variant-caps:normal;font-variant-numeric:normal;font-feature-settings:normal;text-align:start;letter-spacing:0px;word-spacing:0px;writing-mode:lr-tb;text-anchor:start;fill:#ffffff;fill-opacity:1;stroke:none;stroke-width:4.17969704"
         d="m 544.31352,1483.1363 q -9.26588,0 -16.81231,-4.2986 -7.54644,-4.3942 -11.94056,-12.1316 -4.2986,-7.833 -4.2986,-17.6721 0,-9.839 4.2986,-17.5765 4.39412,-7.833 11.94056,-12.1316 7.54643,-4.3941 16.81231,-4.3941 9.3614,0 16.90783,4.3941 7.54644,4.2986 11.84504,12.1316 4.2986,7.7375 4.2986,17.5765 0,9.8391 -4.2986,17.6721 -4.2986,7.7374 -11.84504,12.1316 -7.54643,4.2986 -16.90783,4.2986 z m 0,-5.827 q 7.45091,0 13.37343,-3.4389 5.92252,-3.4389 9.3614,-9.839 3.43888,-6.4957 3.43888,-14.9974 0,-8.5017 -3.43888,-14.9018 -3.43888,-6.4001 -9.3614,-9.839 -5.92252,-3.4389 -13.37343,-3.4389 -7.45091,0 -13.37343,3.4389 -5.92252,3.4389 -9.3614,9.839 -3.43888,6.4001 -3.43888,14.9018 0,8.5017 3.43888,14.9974 3.43888,6.4001 9.3614,9.839 5.92252,3.4389 13.37343,3.4389 z" />
      <path
         inkscape:connector-curvature="0"
         id="path825"
         style="font-style:normal;font-variant:normal;font-weight:300;font-stretch:normal;font-size:95.52449036px;line-height:1.25;font-family:Poppins;-inkscape-font-specification:'Poppins, Light';font-variant-ligatures:normal;font-variant-caps:normal;font-variant-numeric:normal;font-feature-settings:normal;text-align:start;letter-spacing:0px;word-spacing:0px;writing-mode:lr-tb;text-anchor:start;fill:#000000;fill-opacity:1;stroke:none;stroke-width:4.17969704"
         d="m 639.16916,1415.696 v 66.7716 h -6.68671 v -31.2365 h -36.20379 v 31.2365 h -6.68671 v -66.7716 h 6.68671 v 29.9947 h 36.20379 v -29.9947 z" />
      <path
         inkscape:connector-curvature="0"
         id="path827"
         style="font-style:normal;font-variant:normal;font-weight:300;font-stretch:normal;font-size:95.52449036px;line-height:1.25;font-family:Poppins;-inkscape-font-specification:'Poppins, Light';font-variant-ligatures:normal;font-variant-caps:normal;font-variant-numeric:normal;font-feature-settings:normal;text-align:start;letter-spacing:0px;word-spacing:0px;writing-mode:lr-tb;text-anchor:start;fill:#000000;fill-opacity:1;stroke:none;stroke-width:4.17969704"
         d="m 704.7944,1482.4676 h -6.68672 l -36.96798,-56.1684 v 56.1684 h -6.68671 v -66.7716 h 6.68671 l 36.96798,56.0729 v -56.0729 h 6.68672 z" />
      <path
         id="path823-1"
         style="font-style:normal;font-variant:normal;font-weight:300;font-stretch:normal;font-size:95.52449036px;line-height:1.25;font-family:Poppins;-inkscape-font-specification:'Poppins, Light';font-variant-ligatures:normal;font-variant-caps:normal;font-variant-numeric:normal;font-feature-settings:normal;text-align:start;letter-spacing:0px;word-spacing:0px;writing-mode:lr-tb;text-anchor:start;fill:#000000;fill-opacity:1;stroke:#000000;stroke-width:2.49522042;stroke-opacity:1"
         d="m 544.31352,1469.3926 q -5.5316,0 -10.03671,-2.5662 -4.50512,-2.6233 -7.12835,-7.2424 -2.5662,-4.6762 -2.5662,-10.55 0,-5.8737 2.5662,-10.4929 2.62323,-4.6762 7.12835,-7.2424 4.50511,-2.6232 10.03671,-2.6232 5.58862,0 10.09374,2.6232 4.50512,2.5662 7.07132,7.2424 2.5662,4.6192 2.5662,10.4929 0,5.8738 -2.5662,10.55 -2.5662,4.6191 -7.07132,7.2424 -4.50512,2.5662 -10.09374,2.5662 z m 0,-3.4786 q 4.44809,0 7.98375,-2.053 3.53566,-2.053 5.58862,-5.8737 2.05297,-3.8779 2.05297,-8.9533 0,-5.0754 -2.05297,-8.8961 -2.05296,-3.8208 -5.58862,-5.8738 -3.53566,-2.053 -7.98375,-2.053 -4.44809,0 -7.98375,2.053 -3.53566,2.053 -5.58862,5.8738 -2.05297,3.8207 -2.05297,8.8961 0,5.0754 2.05297,8.9533 2.05296,3.8207 5.58862,5.8737 3.53566,2.053 7.98375,2.053 z"
         inkscape:connector-curvature="0" />
    </g>
  </g>
</svg>
