<?xml version="1.0" encoding="UTF-8" standalone="no"?>
<svg
   xmlns:dc="http://purl.org/dc/elements/1.1/"
   xmlns:cc="http://creativecommons.org/ns#"
   xmlns:rdf="http://www.w3.org/1999/02/22-rdf-syntax-ns#"
   xmlns:svg="http://www.w3.org/2000/svg"
   xmlns="http://www.w3.org/2000/svg"
   xmlns:sodipodi="http://sodipodi.sourceforge.net/DTD/sodipodi-0.dtd"
   xmlns:inkscape="http://www.inkscape.org/namespaces/inkscape"
   id="svg863"
   version="1.1"
   viewBox="0 0 346.9214 150.59092"
   height="569.16254"
   width="1311.1991"
   sodipodi:docname="icon-simple.svg"
   inkscape:version="0.92.5 (2060ec1f9f, 2020-04-08)">
  <sodipodi:namedview
     pagecolor="#ffffff"
     bordercolor="#666666"
     borderopacity="1"
     objecttolerance="10"
     gridtolerance="10"
     guidetolerance="10"
     inkscape:pageopacity="0"
     inkscape:pageshadow="2"
     inkscape:window-width="1920"
     inkscape:window-height="1054"
     id="namedview902"
     showgrid="false"
     fit-margin-top="100"
     fit-margin-left="0"
     fit-margin-right="0"
     fit-margin-bottom="100"
     inkscape:zoom="0.28059372"
     inkscape:cx="-830.60628"
     inkscape:cy="798.81398"
     inkscape:window-x="1920"
     inkscape:window-y="0"
     inkscape:window-maximized="1"
     inkscape:current-layer="text842"
     units="px" />
  <defs
     id="defs857" />
  <metadata
     id="metadata860">
    <rdf:RDF>
      <cc:Work
         rdf:about="">
        <dc:format>image/svg+xml</dc:format>
        <dc:type
           rdf:resource="http://purl.org/dc/dcmitype/StillImage" />
        <dc:title />
      </cc:Work>
    </rdf:RDF>
  </metadata>
  <g
     aria-label="OPENSchool"
     transform="matrix(1.9021387,0,0,1.9021387,-936.75971,-2680.9683)"
     style="font-style:normal;font-weight:normal;font-size:40px;line-height:1.25;font-family:sans-serif;letter-spacing:0px;word-spacing:0px;fill:#1a1a1a;fill-opacity:1;stroke:none"
     id="flowRoot966">
    <g
       aria-label="john"
       style="font-style:normal;font-weight:normal;font-size:70.0083847px;line-height:1.25;font-family:sans-serif;letter-spacing:0px;word-spacing:0px;fill:#307f96;fill-opacity:1;stroke:none;stroke-width:1.75020969"
       id="text842">
      <path
         inkscape:connector-curvature="0"
         id="path821"
         style="font-style:normal;font-variant:normal;font-weight:300;font-stretch:normal;font-size:95.52449036px;line-height:1.25;font-family:Poppins;-inkscape-font-specification:'Poppins, Light';font-variant-ligatures:normal;font-variant-caps:normal;font-variant-numeric:normal;font-feature-settings:normal;text-align:start;letter-spacing:0px;word-spacing:0px;writing-mode:lr-tb;text-anchor:start;fill:#3b3b3b;fill-opacity:1;stroke:none;stroke-width:3.14680958"
         d="m 518.79924,1423.9345 v 38.0448 q 0,5.7535 -3.52401,9.2775 -3.524,3.4521 -9.42132,3.4521 -6.11306,0 -9.78091,-3.6678 -3.59592,-3.7398 -3.59592,-10.0686 h 5.10621 q 0.0719,4.0994 2.01372,6.6884 2.01372,2.5891 6.2569,2.5891 4.02744,0 5.96923,-2.3734 1.9418,-2.3733 1.9418,-5.8973 v -38.0448 z" />
      <path
         inkscape:connector-curvature="0"
         id="path823"
         style="font-style:normal;font-variant:normal;font-weight:300;font-stretch:normal;font-size:95.52449036px;line-height:1.25;font-family:Poppins;-inkscape-font-specification:'Poppins, Light';font-variant-ligatures:normal;font-variant-caps:normal;font-variant-numeric:normal;font-feature-settings:normal;text-align:start;letter-spacing:0px;word-spacing:0px;writing-mode:lr-tb;text-anchor:start;fill:#ffffff;fill-opacity:1;stroke:none;stroke-width:3.14680958"
         d="m 554.03919,1474.7089 q -6.9761,0 -12.65765,-3.2363 -5.68156,-3.3083 -8.98981,-9.1336 -3.23633,-5.8973 -3.23633,-13.305 0,-7.4076 3.23633,-13.233 3.30825,-5.8973 8.98981,-9.1336 5.68155,-3.3082 12.65765,-3.3082 7.04801,0 12.72956,3.3082 5.68156,3.2363 8.91789,9.1336 3.23633,5.8254 3.23633,13.233 0,7.4077 -3.23633,13.305 -3.23633,5.8253 -8.91789,9.1336 -5.68155,3.2363 -12.72956,3.2363 z m 0,-4.387 q 5.60964,0 10.06858,-2.5891 4.45895,-2.589 7.04801,-7.4075 2.58906,-4.8905 2.58906,-11.2913 0,-6.4007 -2.58906,-11.2193 -2.58906,-4.8185 -7.04801,-7.4075 -4.45894,-2.5891 -10.06858,-2.5891 -5.60964,0 -10.06859,2.5891 -4.45894,2.589 -7.04801,7.4075 -2.58906,4.8186 -2.58906,11.2193 0,6.4008 2.58906,11.2913 2.58907,4.8185 7.04801,7.4075 4.45895,2.5891 10.06859,2.5891 z" />
      <path
         inkscape:connector-curvature="0"
         id="path825"
         style="font-style:normal;font-variant:normal;font-weight:300;font-stretch:normal;font-size:95.52449036px;line-height:1.25;font-family:Poppins;-inkscape-font-specification:'Poppins, Light';font-variant-ligatures:normal;font-variant-caps:normal;font-variant-numeric:normal;font-feature-settings:normal;text-align:start;letter-spacing:0px;word-spacing:0px;writing-mode:lr-tb;text-anchor:start;fill:#3b3b3b;fill-opacity:1;stroke:none;stroke-width:3.14680958"
         d="m 625.45408,1423.9345 v 50.271 h -5.03429 v -23.5173 h -27.2571 v 23.5173 h -5.03429 v -50.271 h 5.03429 v 22.5824 h 27.2571 v -22.5824 z" />
      <path
         inkscape:connector-curvature="0"
         id="path827"
         style="font-style:normal;font-variant:normal;font-weight:300;font-stretch:normal;font-size:95.52449036px;line-height:1.25;font-family:Poppins;-inkscape-font-specification:'Poppins, Light';font-variant-ligatures:normal;font-variant-caps:normal;font-variant-numeric:normal;font-feature-settings:normal;text-align:start;letter-spacing:0px;word-spacing:0px;writing-mode:lr-tb;text-anchor:start;fill:#3b3b3b;fill-opacity:1;stroke:none;stroke-width:3.14680958"
         d="m 674.862,1474.2055 h -5.03429 l -27.83245,-42.2881 v 42.2881 h -5.03429 v -50.271 h 5.03429 l 27.83245,42.2162 v -42.2162 h 5.03429 z" />
      <path
         id="path823-1"
         style="font-style:normal;font-variant:normal;font-weight:300;font-stretch:normal;font-size:95.52449036px;line-height:1.25;font-family:Poppins;-inkscape-font-specification:'Poppins, Light';font-variant-ligatures:normal;font-variant-caps:normal;font-variant-numeric:normal;font-feature-settings:normal;text-align:start;letter-spacing:0px;word-spacing:0px;writing-mode:lr-tb;text-anchor:start;fill:#3b3b3b;fill-opacity:1;stroke:#3b3b3b;stroke-width:1.87860107;stroke-opacity:1"
         d="m 554.03919,1464.3616 q -4.16463,0 -7.55644,-1.932 -3.39181,-1.9751 -5.36679,-5.4527 -1.93204,-3.5206 -1.93204,-7.9429 0,-4.4222 1.93204,-7.8999 1.97498,-3.5206 5.36679,-5.4526 3.39181,-1.975 7.55644,-1.975 4.20756,0 7.59937,1.975 3.39181,1.932 5.32385,5.4526 1.93204,3.4777 1.93204,7.8999 0,4.4223 -1.93204,7.9429 -1.93204,3.4776 -5.32385,5.4527 -3.39181,1.932 -7.59937,1.932 z m 0,-2.619 q 3.34887,0 6.0108,-1.5456 2.66193,-1.5457 4.20756,-4.4222 1.54564,-2.9196 1.54564,-6.7408 0,-3.8212 -1.54564,-6.6977 -1.54563,-2.8766 -4.20756,-4.4222 -2.66193,-1.5457 -6.0108,-1.5457 -3.34888,0 -6.01081,1.5457 -2.66192,1.5456 -4.20756,4.4222 -1.54564,2.8765 -1.54564,6.6977 0,3.8212 1.54564,6.7408 1.54564,2.8765 4.20756,4.4222 2.66193,1.5456 6.01081,1.5456 z"
         inkscape:connector-curvature="0" />
    </g>
  </g>
</svg>
