<?xml version="1.0" encoding="UTF-8" standalone="no"?>
<svg
   xmlns:dc="http://purl.org/dc/elements/1.1/"
   xmlns:cc="http://creativecommons.org/ns#"
   xmlns:rdf="http://www.w3.org/1999/02/22-rdf-syntax-ns#"
   xmlns:svg="http://www.w3.org/2000/svg"
   xmlns="http://www.w3.org/2000/svg"
   xmlns:sodipodi="http://sodipodi.sourceforge.net/DTD/sodipodi-0.dtd"
   xmlns:inkscape="http://www.inkscape.org/namespaces/inkscape"
   id="svg863"
   version="1.1"
   viewBox="0 0 297.36057 133.16645"
   height="503.30627"
   width="1123.8826"
   sodipodi:docname="icon-simple.svg"
   inkscape:version="0.92.5 (2060ec1f9f, 2020-04-08)">
  <sodipodi:namedview
     pagecolor="#ffffff"
     bordercolor="#666666"
     borderopacity="1"
     objecttolerance="10"
     gridtolerance="10"
     guidetolerance="10"
     inkscape:pageopacity="0"
     inkscape:pageshadow="2"
     inkscape:window-width="1920"
     inkscape:window-height="1054"
     id="namedview902"
     showgrid="false"
     fit-margin-top="0"
     fit-margin-left="0"
     fit-margin-right="0"
     fit-margin-bottom="0"
     inkscape:zoom="0.28059372"
     inkscape:cx="1550.6121"
     inkscape:cy="576.95458"
     inkscape:window-x="1920"
     inkscape:window-y="0"
     inkscape:window-maximized="1"
     inkscape:current-layer="text842"
     units="px" />
  <defs
     id="defs857" />
  <metadata
     id="metadata860">
    <rdf:RDF>
      <cc:Work
         rdf:about="">
        <dc:format>image/svg+xml</dc:format>
        <dc:type
           rdf:resource="http://purl.org/dc/dcmitype/StillImage" />
        <dc:title></dc:title>
      </cc:Work>
    </rdf:RDF>
  </metadata>
  <g
     aria-label="OPENSchool"
     transform="matrix(1.9021387,0,0,1.9021387,-937.2891,-2693.0362)"
     style="font-style:normal;font-weight:normal;font-size:40px;line-height:1.25;font-family:sans-serif;letter-spacing:0px;word-spacing:0px;fill:#1a1a1a;fill-opacity:1;stroke:none"
     id="flowRoot966">
    <g
       aria-label="john"
       style="font-style:normal;font-weight:normal;font-size:70.0083847px;line-height:1.25;font-family:sans-serif;letter-spacing:0px;word-spacing:0px;fill:#307f96;fill-opacity:1;stroke:none;stroke-width:1.75020969"
       id="text842">
      <path
         d="m 520.82894,1434.9762 v 27.3035 q 0,11.4814 -3.99051,17.5022 -3.92049,6.0207 -12.88163,6.0207 -5.81073,0 -8.47107,-2.3103 -2.73034,-2.3103 -2.73034,-5.3906 0,-3.0804 1.82023,-4.7606 1.82023,-1.6103 4.55057,-1.6103 2.73035,0 4.13052,1.4702 1.33017,1.5402 1.33017,3.3605 0,1.8202 -0.42005,3.5004 h -2.66034 q -1.12014,1.8902 -0.28003,3.2204 0.77009,1.3302 2.87036,1.3302 2.17027,0 2.94037,-2.4503 0.7701,-2.3803 0.7701,-9.9413 v -35.9845 h -4.55058 v -1.2602 z m -6.65084,-4.8306 q -3.71047,0 -5.32068,-1.8903 -1.54019,-1.8902 -1.54019,-4.6905 0,-2.8004 1.68021,-4.6206 1.75022,-1.8203 5.25066,-1.8203 3.50045,0 5.32068,1.6803 1.82023,1.6102 1.82023,4.6905 0,3.0104 -1.75022,4.8307 -1.75022,1.8202 -5.46069,1.8202 z"
         style="font-style:normal;font-variant:normal;font-weight:normal;font-stretch:normal;font-size:70.00885773px;font-family:'Abril Fatface';-inkscape-font-specification:'Abril Fatface, Normal';font-variant-ligatures:normal;font-variant-caps:normal;font-variant-numeric:normal;font-feature-settings:normal;text-align:start;writing-mode:lr-tb;text-anchor:start;fill:#307f96;fill-opacity:1;stroke-width:1.75020969"
         id="path848"
         inkscape:connector-curvature="0" />
      <path
         d="m 548.34234,1454.5087 v -5.9508 q 0,-6.7908 -0.7701,-9.8712 -0.70008,-3.1504 -3.36042,-3.1504 -1.5402,0 -2.52032,0.9101 -0.91011,0.8401 -1.33017,2.8703 -0.63008,3.1504 -0.63008,9.5913 v 5.4607 q 0,7.6309 0.42006,9.1711 0.49006,1.5402 0.98012,2.5203 0.7701,1.6802 3.01038,1.6802 2.73035,0 3.57045,-3.1504 0.63008,-2.2402 0.63008,-10.0812 z m -4.34055,14.4918 q -8.7511,0 -13.23167,-4.4806 -4.48057,-4.4805 -4.48057,-12.8116 0,-8.401 4.7606,-12.8816 4.83062,-4.5506 13.51171,-4.5506 8.6811,0 12.95164,4.2005 4.27054,4.1306 4.27054,12.6716 0,17.8523 -17.78225,17.8523 z"
         style="font-style:normal;font-variant:normal;font-weight:normal;font-stretch:normal;font-size:70.00885773px;font-family:'Abril Fatface';-inkscape-font-specification:'Abril Fatface, Normal';font-variant-ligatures:normal;font-variant-caps:normal;font-variant-numeric:normal;font-feature-settings:normal;text-align:start;writing-mode:lr-tb;text-anchor:start;fill:#feffff;fill-opacity:1;stroke-width:1.75020969"
         id="path850"
         inkscape:connector-curvature="0" />
      <path
         d="m 563.74424,1415.7938 h 16.87213 v 25.6232 q 1.12015,-3.2204 3.43044,-5.1806 2.31029,-1.9603 7.00088,-1.9603 10.85138,0 10.85138,11.6915 v 21.0727 h 3.92049 v 1.2601 h -19.8125 v -1.2601 h 2.87036 v -22.7529 q 0,-4.2006 -0.56007,-5.3907 -0.56007,-1.2602 -2.03026,-1.2602 -2.24028,0 -3.9905,2.9404 -1.68022,2.9404 -1.68022,7.1409 v 19.3225 h 3.01039 v 1.2601 h -19.88252 v -1.2601 h 3.85049 v -49.9864 h -3.85049 z"
         style="font-style:normal;font-variant:normal;font-weight:normal;font-stretch:normal;font-size:70.00885773px;font-family:'Abril Fatface';-inkscape-font-specification:'Abril Fatface, Normal';font-variant-ligatures:normal;font-variant-caps:normal;font-variant-numeric:normal;font-feature-settings:normal;text-align:start;writing-mode:lr-tb;text-anchor:start;fill:#307f96;fill-opacity:1;stroke-width:1.75020969"
         id="path852"
         inkscape:connector-curvature="0" />
      <path
         d="m 607.00966,1434.9762 h 16.87214 v 6.4408 q 1.12014,-3.2204 3.43043,-5.1806 2.31029,-1.9603 7.00089,-1.9603 10.85137,0 10.85137,11.6915 v 21.0727 h 3.9205 v 1.2601 h -19.81251 v -1.2601 h 2.87036 v -22.7529 q 0,-4.2006 -0.56007,-5.3907 -0.56007,-1.2602 -2.03026,-1.2602 -2.24028,0 -3.9905,2.9404 -1.68021,2.9404 -1.68021,7.1409 v 19.3225 h 3.01038 v 1.2601 h -19.88252 v -1.2601 h 3.85049 v -30.8039 h -3.85049 z"
         style="font-style:normal;font-variant:normal;font-weight:normal;font-stretch:normal;font-size:70.00885773px;font-family:'Abril Fatface';-inkscape-font-specification:'Abril Fatface, Normal';font-variant-ligatures:normal;font-variant-caps:normal;font-variant-numeric:normal;font-feature-settings:normal;text-align:start;writing-mode:lr-tb;text-anchor:start;fill:#307f96;fill-opacity:1;stroke-width:1.75020969"
         id="path854"
         inkscape:connector-curvature="0" />
    </g>
  </g>
</svg>
