<?xml version="1.0" encoding="UTF-8" standalone="no"?>
<svg
   xmlns:dc="http://purl.org/dc/elements/1.1/"
   xmlns:cc="http://creativecommons.org/ns#"
   xmlns:rdf="http://www.w3.org/1999/02/22-rdf-syntax-ns#"
   xmlns:svg="http://www.w3.org/2000/svg"
   xmlns="http://www.w3.org/2000/svg"
   xmlns:sodipodi="http://sodipodi.sourceforge.net/DTD/sodipodi-0.dtd"
   xmlns:inkscape="http://www.inkscape.org/namespaces/inkscape"
   height="20"
   width="20"
   viewBox="0 0 4.096 4.096"
   version="1.1"
   id="svg18"
   sodipodi:docname="google-podcasts.svg"
   inkscape:version="0.92.5 (2060ec1f9f, 2020-04-08)">
  <metadata
     id="metadata24">
    <rdf:RDF>
      <cc:Work
         rdf:about="">
        <dc:format>image/svg+xml</dc:format>
        <dc:type
           rdf:resource="http://purl.org/dc/dcmitype/StillImage" />
        <dc:title></dc:title>
      </cc:Work>
    </rdf:RDF>
  </metadata>
  <defs
     id="defs22" />
  <sodipodi:namedview
     pagecolor="#ffffff"
     bordercolor="#666666"
     borderopacity="1"
     objecttolerance="10"
     gridtolerance="10"
     guidetolerance="10"
     inkscape:pageopacity="0"
     inkscape:pageshadow="2"
     inkscape:window-width="960"
     inkscape:window-height="1013"
     id="namedview20"
     showgrid="false"
     fit-margin-top="0"
     fit-margin-left="0"
     fit-margin-right="0"
     fit-margin-bottom="0"
     inkscape:zoom="4.2720563"
     inkscape:cx="43.067358"
     inkscape:cy="33.382234"
     inkscape:window-x="0"
     inkscape:window-y="330"
     inkscape:window-maximized="0"
     inkscape:current-layer="svg18" />
  <g
     id="g16"
     transform="scale(0.008)"
     style="fill:none">
    <path
       d="m 64,238.545 v 34.91 c 0,17.673 -14.327,32 -32,32 -17.673,0 -32,-14.327 -32,-32 v -34.91 c 0,-17.673 14.327,-32 32,-32 17.673,0 32,14.327 32,32 z"
       id="path2"
       inkscape:connector-curvature="0"
       style="fill:#0066d9" />
    <path
       d="M 448.013,239.455 A 32.6,32.6 0 0 1 448,238.545 c 0,-17.673 14.327,-32 32,-32 17.673,0 32,14.327 32,32 0,0.304 -0.004,0.608 -0.013,0.91 H 512 v 34.909 h -0.013 c -0.48,17.252 -14.618,31.09 -31.987,31.09 -17.369,0 -31.506,-13.838 -31.987,-31.09 H 448 v -34.91 h 0.013 z"
       id="path4"
       inkscape:connector-curvature="0"
       style="fill:#4285f4" />
    <path
       d="m 174.545,343.273 v 34.909 c 0,17.673 -14.326,32 -32,32 -17.674,0 -32,-14.327 -32,-32 v -34.91 c 0,-17.672 14.327,-32 32,-32 17.673,0 32,14.328 32,32 z m 0,-209.455 V 248 h -0.008 c -0.386,17.337 -14.562,31.273 -31.992,31.273 -17.43,0 -31.605,-13.936 -31.991,-31.273 h -0.009 V 133.818 c 0,-17.673 14.327,-32 32,-32 17.673,0 32,14.327 32,32 z"
       id="path6"
       inkscape:connector-curvature="0"
       style="fill:#ea4335" />
    <path
       d="m 337.455,168.727 c 0,17.673 14.326,32 32,32 17.674,0 32,-14.327 32,-32 v -34.909 c 0,-17.673 -14.327,-32 -32,-32 -17.673,0 -32,14.327 -32,32 z"
       id="path8"
       inkscape:connector-curvature="0"
       style="fill:#34a853" />
    <path
       d="m 224,66.91 c 0,17.672 14.327,32 32,32 17.673,0 32,-14.328 32,-32 V 32 C 288,14.327 273.673,0 256,0 238.327,0 224,14.327 224,32 Z m 0,378.18 c 0,-17.672 14.327,-32 32,-32 17.673,0 32,14.328 32,32 V 480 c 0,17.673 -14.327,32 -32,32 -17.673,0 -32,-14.327 -32,-32 z"
       id="path10"
       inkscape:connector-curvature="0"
       style="fill:#fab908" />
    <path
       d="m 337.455,264.727 c 0,-17.673 14.326,-32 32,-32 17.674,0 32,14.327 32,32 v 113.455 c 0,17.673 -14.327,32 -32,32 -17.673,0 -32,-14.327 -32,-32 z"
       id="path12"
       inkscape:connector-curvature="0"
       style="fill:#34a853" />
    <path
       d="m 288,162.91 v 186.18 c 0,17.674 -14.327,32 -32,32 -17.673,0 -32,-14.326 -32,-32 V 162.91 c 0,-17.674 14.327,-32 32,-32 17.673,0 32,14.326 32,32 z"
       id="path14"
       inkscape:connector-curvature="0"
       style="fill:#fab908" />
  </g>
</svg>
