<?xml version="1.0" encoding="UTF-8" standalone="no"?>
<!-- Created with Inkscape (http://www.inkscape.org/) -->

<svg
   xmlns:dc="http://purl.org/dc/elements/1.1/"
   xmlns:cc="http://creativecommons.org/ns#"
   xmlns:rdf="http://www.w3.org/1999/02/22-rdf-syntax-ns#"
   xmlns:svg="http://www.w3.org/2000/svg"
   xmlns="http://www.w3.org/2000/svg"
   xmlns:sodipodi="http://sodipodi.sourceforge.net/DTD/sodipodi-0.dtd"
   xmlns:inkscape="http://www.inkscape.org/namespaces/inkscape"
   width="20.509682mm"
   height="7.9375mm"
   viewBox="0 0 20.509682 7.9375"
   version="1.1"
   id="svg8"
   sodipodi:docname="logo.svg"
   inkscape:version="0.92.5 (2060ec1f9f, 2020-04-08)">
  <defs
     id="defs2" />
  <sodipodi:namedview
     id="base"
     pagecolor="#ffffff"
     bordercolor="#666666"
     borderopacity="1.0"
     inkscape:pageopacity="0.0"
     inkscape:pageshadow="2"
     inkscape:zoom="3.959798"
     inkscape:cx="-27.428001"
     inkscape:cy="29.138865"
     inkscape:document-units="mm"
     inkscape:current-layer="g902"
     showgrid="false"
     fit-margin-top="0"
     fit-margin-left="0"
     fit-margin-right="0"
     fit-margin-bottom="0"
     inkscape:window-width="1920"
     inkscape:window-height="1013"
     inkscape:window-x="0"
     inkscape:window-y="330"
     inkscape:window-maximized="1" />
  <metadata
     id="metadata5">
    <rdf:RDF>
      <cc:Work
         rdf:about="">
        <dc:format>image/svg+xml</dc:format>
        <dc:type
           rdf:resource="http://purl.org/dc/dcmitype/StillImage" />
        <dc:title></dc:title>
      </cc:Work>
    </rdf:RDF>
  </metadata>
  <g
     inkscape:label="Layer 1"
     inkscape:groupmode="layer"
     id="layer1"
     transform="translate(793.59994,-96.672061)">
    <g
       id="g902"
       transform="matrix(0.41822103,0,0,0.41822103,-461.69976,60.859643)">
      <path
         inkscape:export-ydpi="693.52002"
         inkscape:export-xdpi="693.52002"
         id="path908"
         d="m -750.25881,87.435749 a 1.6652693,1.6652693 0 0 1 1.66805,-1.666381 h 2.22406 c 0.92105,0 1.66805,0.749231 1.66805,1.666381 v 3.337768 h -3.89211 c -0.92105,0 -1.66805,-0.749232 -1.66805,-1.666383 z m 5.00415,2.781751 v -2.781751 a 1.113145,1.113145 0 0 0 -1.11204,-1.110366 h -2.22406 a 1.1092529,1.1092529 0 0 0 -1.11204,1.110366 v 1.671385 a 1.113145,1.113145 0 0 0 1.11204,1.110366 z m -1.66804,-2.224067 h 0.556 v 0.556017 h -0.556 z m -1.66806,0 h 0.55602 v 0.556017 h -0.55602 z"
         inkscape:connector-curvature="0"
         style="fill:#01688e;fill-opacity:1;stroke:#01688e;stroke-width:0.27800825;stroke-opacity:1" />
      <g
         aria-label="THOUGHTFUL"
         style="font-style:normal;font-weight:normal;font-size:12.62884617px;line-height:1.25;font-family:sans-serif;letter-spacing:0px;word-spacing:0px;fill:#01688e;fill-opacity:1;stroke:none;stroke-width:0.31572118"
         id="text843"
         transform="matrix(0.59999999,0,0,0.59999999,-317.43998,41.843825)">
        <path
           d="m -787.13394,84.406516 v 1.42706 h -2.34896 v 7.387875 h -1.76804 v -7.387875 h -2.34897 v -1.42706 z"
           style="font-style:normal;font-variant:normal;font-weight:600;font-stretch:normal;font-family:Poppins;-inkscape-font-specification:'Poppins Semi-Bold';fill:#01688e;fill-opacity:1;stroke-width:0.31572118"
           id="path923"
           inkscape:connector-curvature="0" />
        <path
           d="m -778.5337,84.406516 v 8.814935 h -1.76803 v -3.750768 h -3.77603 v 3.750768 h -1.76804 v -8.814935 h 1.76804 v 3.624479 h 3.77603 v -3.624479 z"
           style="font-style:normal;font-variant:normal;font-weight:600;font-stretch:normal;font-family:Poppins;-inkscape-font-specification:'Poppins Semi-Bold';fill:#01688e;fill-opacity:1;stroke-width:0.31572118"
           id="path925"
           inkscape:connector-curvature="0" />
        <path
           d="m -772.69918,93.309853 q -1.23763,0 -2.27319,-0.580927 -1.03557,-0.580927 -1.64175,-1.603864 -0.60619,-1.035565 -0.60619,-2.336336 0,-1.288143 0.60619,-2.311079 0.60618,-1.035565 1.64175,-1.616492 1.03556,-0.580927 2.27319,-0.580927 1.25026,0 2.27319,0.580927 1.03557,0.580927 1.62912,1.616492 0.60619,1.022936 0.60619,2.311079 0,1.300771 -0.60619,2.336336 -0.59355,1.022937 -1.62912,1.603864 -1.03556,0.580927 -2.27319,0.580927 z m 0,-1.578606 q 0.79562,0 1.4018,-0.353608 0.60619,-0.366236 0.94716,-1.035565 0.34098,-0.669329 0.34098,-1.553348 0,-0.884019 -0.34098,-1.540719 -0.34097,-0.669329 -0.94716,-1.022937 -0.60618,-0.353608 -1.4018,-0.353608 -0.79562,0 -1.41443,0.353608 -0.60619,0.353608 -0.94716,1.022937 -0.34098,0.6567 -0.34098,1.540719 0,0.884019 0.34098,1.553348 0.34097,0.669329 0.94716,1.035565 0.61881,0.353608 1.41443,0.353608 z"
           style="font-style:normal;font-variant:normal;font-weight:600;font-stretch:normal;font-family:Poppins;-inkscape-font-specification:'Poppins Semi-Bold';fill:#01688e;fill-opacity:1;stroke-width:0.31572118"
           id="path927"
           inkscape:connector-curvature="0" />
        <path
           d="m -765.13451,84.406516 v 5.455662 q 0,0.896648 0.46727,1.376544 0.46727,0.467267 1.3134,0.467267 0.85876,0 1.32603,-0.467267 0.46727,-0.479896 0.46727,-1.376544 v -5.455662 h 1.78067 v 5.443033 q 0,1.123967 -0.49253,1.906956 -0.4799,0.770359 -1.30077,1.161853 -0.80825,0.391495 -1.80593,0.391495 -0.98505,0 -1.79329,-0.391495 -0.79562,-0.391494 -1.26289,-1.161853 -0.46726,-0.782989 -0.46726,-1.906956 v -5.443033 z"
           style="font-style:normal;font-variant:normal;font-weight:600;font-stretch:normal;font-family:Poppins;-inkscape-font-specification:'Poppins Semi-Bold';fill:#01688e;fill-opacity:1;stroke-width:0.31572118"
           id="path929"
           inkscape:connector-curvature="0" />
        <path
           d="m -751.93738,87.058574 q -0.30309,-0.555669 -0.8335,-0.846133 -0.53041,-0.290463 -1.23763,-0.290463 -0.78299,0 -1.38917,0.353607 -0.60619,0.353608 -0.94717,1.010308 -0.34097,0.6567 -0.34097,1.515462 0,0.884019 0.34097,1.540719 0.35361,0.6567 0.97243,1.010308 0.61881,0.353607 1.43968,0.353607 1.01031,0 1.65438,-0.530411 0.64407,-0.543041 0.84614,-1.502833 h -3.03093 v -1.351287 h 4.77371 v 1.54072 q -0.17681,0.921905 -0.75773,1.704894 -0.58093,0.782988 -1.50284,1.262885 -0.90927,0.467267 -2.04587,0.467267 -1.27551,0 -2.31108,-0.568298 -1.02294,-0.580927 -1.61649,-1.603864 -0.58093,-1.022936 -0.58093,-2.323707 0,-1.300772 0.58093,-2.323708 0.59355,-1.035565 1.61649,-1.603864 1.03557,-0.580926 2.29845,-0.580926 1.4902,0 2.58891,0.732473 1.09871,0.719844 1.51547,2.033244 z"
           style="font-style:normal;font-variant:normal;font-weight:600;font-stretch:normal;font-family:Poppins;-inkscape-font-specification:'Poppins Semi-Bold';fill:#01688e;fill-opacity:1;stroke-width:0.31572118"
           id="path931"
           inkscape:connector-curvature="0" />
        <path
           d="m -741.06394,84.406516 v 8.814935 h -1.76804 v -3.750768 h -3.77603 v 3.750768 h -1.76804 v -8.814935 h 1.76804 v 3.624479 h 3.77603 v -3.624479 z"
           style="font-style:normal;font-variant:normal;font-weight:600;font-stretch:normal;font-family:Poppins;-inkscape-font-specification:'Poppins Semi-Bold';fill:#01688e;fill-opacity:1;stroke-width:0.31572118"
           id="path933"
           inkscape:connector-curvature="0" />
        <path
           d="m -733.32247,84.406516 v 1.42706 h -2.34897 v 7.387875 h -1.76804 v -7.387875 h -2.34896 v -1.42706 z"
           style="font-style:normal;font-variant:normal;font-weight:600;font-stretch:normal;font-family:Poppins;-inkscape-font-specification:'Poppins Semi-Bold';fill:#01688e;fill-opacity:1;stroke-width:0.31572118"
           id="path935"
           inkscape:connector-curvature="0" />
        <path
           d="m -726.5913,84.406516 v 1.42706 h -3.675 v 2.260563 h 2.81623 v 1.401802 h -2.81623 v 3.72551 h -1.76804 v -8.814935 z"
           style="font-style:normal;font-variant:normal;font-weight:600;font-stretch:normal;font-family:Poppins;-inkscape-font-specification:'Poppins Semi-Bold';fill:#01688e;fill-opacity:1;stroke-width:0.31572118"
           id="path937"
           inkscape:connector-curvature="0" />
        <path
           d="m -723.59828,84.406516 v 5.455662 q 0,0.896648 0.46726,1.376544 0.46727,0.467267 1.3134,0.467267 0.85876,0 1.32603,-0.467267 0.46727,-0.479896 0.46727,-1.376544 v -5.455662 h 1.78067 v 5.443033 q 0,1.123967 -0.49253,1.906956 -0.47989,0.770359 -1.30077,1.161853 -0.80825,0.391495 -1.80592,0.391495 -0.98505,0 -1.7933,-0.391495 -0.79562,-0.391494 -1.26289,-1.161853 -0.46726,-0.782989 -0.46726,-1.906956 v -5.443033 z"
           style="font-style:normal;font-variant:normal;font-weight:600;font-stretch:normal;font-family:Poppins;-inkscape-font-specification:'Poppins Semi-Bold';fill:#01688e;fill-opacity:1;stroke-width:0.31572118"
           id="path939"
           inkscape:connector-curvature="0" />
        <path
           d="m -714.77074,91.819649 h 2.90464 v 1.401802 h -4.67267 v -8.814935 h 1.76803 z"
           style="font-style:normal;font-variant:normal;font-weight:600;font-stretch:normal;font-family:Poppins;-inkscape-font-specification:'Poppins Semi-Bold';fill:#01688e;fill-opacity:1;stroke-width:0.31572118"
           id="path941"
           inkscape:connector-curvature="0" />
      </g>
      <g
         aria-label="THE"
         style="font-style:normal;font-weight:normal;font-size:12.62884617px;line-height:1.25;font-family:sans-serif;letter-spacing:0px;word-spacing:0px;fill:#01688e;fill-opacity:1;stroke:none;stroke-width:0.31572118"
         id="text843-3"
         transform="matrix(0.66666668,0,0,0.66666668,-264.53329,34.869851)">
        <path
           d="m -787.78054,76.336635 v 1.284354 h -2.11406 v 6.649087 h -1.59124 v -6.649087 h -2.11407 v -1.284354 z"
           style="font-style:normal;font-variant:normal;font-weight:600;font-stretch:normal;font-family:Poppins;-inkscape-font-specification:'Poppins Semi-Bold';fill:#01688e;fill-opacity:1;stroke-width:0.28414905"
           id="path944"
           inkscape:connector-curvature="0" />
        <path
           d="m -780.04032,76.336635 v 7.933441 h -1.59123 v -3.37569 h -3.39843 v 3.37569 h -1.59123 v -7.933441 h 1.59123 v 3.262031 h 3.39843 v -3.262031 z"
           style="font-style:normal;font-variant:normal;font-weight:600;font-stretch:normal;font-family:Poppins;-inkscape-font-specification:'Poppins Semi-Bold';fill:#01688e;fill-opacity:1;stroke-width:0.28414905"
           id="path946"
           inkscape:connector-curvature="0" />
        <path
           d="m -776.88059,77.620989 v 1.989043 h 2.671 v 1.261622 h -2.671 v 2.102702 h 3.01198 v 1.29572 h -4.60322 v -7.944807 h 4.60322 v 1.29572 z"
           style="font-style:normal;font-variant:normal;font-weight:600;font-stretch:normal;font-family:Poppins;-inkscape-font-specification:'Poppins Semi-Bold';fill:#01688e;fill-opacity:1;stroke-width:0.28414905"
           id="path948"
           inkscape:connector-curvature="0" />
      </g>
      <g
         aria-label="MILLENNIAL"
         style="font-style:normal;font-weight:normal;font-size:12.62884617px;line-height:1.25;font-family:sans-serif;letter-spacing:0px;word-spacing:0px;fill:#01688e;fill-opacity:1;stroke:none;stroke-width:0.31572118"
         id="text843-35"
         transform="matrix(0.59999999,0,0,0.59999999,-317.43998,41.843825)">
        <path
           d="m -783.98937,95.794623 v 8.814937 h -1.76804 v -5.733498 l -2.36159,5.733498 h -1.33866 l -2.37422,-5.733498 v 5.733498 h -1.76804 v -8.814937 h 2.00798 l 2.80361,6.554367 2.8036,-6.554367 z"
           style="font-style:normal;font-variant:normal;font-weight:600;font-stretch:normal;font-family:Poppins;-inkscape-font-specification:'Poppins Semi-Bold';fill:#01688e;fill-opacity:1;stroke-width:0.31572118"
           id="path951"
           inkscape:connector-curvature="0" />
        <path
           d="m -780.47857,95.794623 v 8.814937 h -1.76804 v -8.814937 z"
           style="font-style:normal;font-variant:normal;font-weight:600;font-stretch:normal;font-family:Poppins;-inkscape-font-specification:'Poppins Semi-Bold';fill:#01688e;fill-opacity:1;stroke-width:0.31572118"
           id="path953"
           inkscape:connector-curvature="0" />
        <path
           d="m -776.96776,103.20776 h 2.90464 v 1.4018 h -4.67267 v -8.814937 h 1.76803 z"
           style="font-style:normal;font-variant:normal;font-weight:600;font-stretch:normal;font-family:Poppins;-inkscape-font-specification:'Poppins Semi-Bold';fill:#01688e;fill-opacity:1;stroke-width:0.31572118"
           id="path955"
           inkscape:connector-curvature="0" />
        <path
           d="m -771.17112,103.20776 h 2.90463 v 1.4018 h -4.67267 v -8.814937 h 1.76804 z"
           style="font-style:normal;font-variant:normal;font-weight:600;font-stretch:normal;font-family:Poppins;-inkscape-font-specification:'Poppins Semi-Bold';fill:#01688e;fill-opacity:1;stroke-width:0.31572118"
           id="path957"
           inkscape:connector-curvature="0" />
        <path
           d="m -765.37449,97.221683 v 2.210048 h 2.96778 v 1.401799 h -2.96778 v 2.33634 h 3.34665 v 1.43969 h -5.11468 v -8.827565 h 5.11468 v 1.439688 z"
           style="font-style:normal;font-variant:normal;font-weight:600;font-stretch:normal;font-family:Poppins;-inkscape-font-specification:'Poppins Semi-Bold';fill:#01688e;fill-opacity:1;stroke-width:0.31572118"
           id="path959"
           inkscape:connector-curvature="0" />
        <path
           d="m -752.88456,104.60956 h -1.76804 l -4.00334,-6.049219 v 6.049219 h -1.76804 v -8.827565 h 1.76804 l 4.00334,6.061845 v -6.061845 h 1.76804 z"
           style="font-style:normal;font-variant:normal;font-weight:600;font-stretch:normal;font-family:Poppins;-inkscape-font-specification:'Poppins Semi-Bold';fill:#01688e;fill-opacity:1;stroke-width:0.31572118"
           id="path961"
           inkscape:connector-curvature="0" />
        <path
           d="m -743.60238,104.60956 h -1.76803 l -4.00335,-6.049219 v 6.049219 h -1.76804 v -8.827565 h 1.76804 l 4.00335,6.061845 v -6.061845 h 1.76803 z"
           style="font-style:normal;font-variant:normal;font-weight:600;font-stretch:normal;font-family:Poppins;-inkscape-font-specification:'Poppins Semi-Bold';fill:#01688e;fill-opacity:1;stroke-width:0.31572118"
           id="path963"
           inkscape:connector-curvature="0" />
        <path
           d="m -740.09157,95.794623 v 8.814937 h -1.76804 v -8.814937 z"
           style="font-style:normal;font-variant:normal;font-weight:600;font-stretch:normal;font-family:Poppins;-inkscape-font-specification:'Poppins Semi-Bold';fill:#01688e;fill-opacity:1;stroke-width:0.31572118"
           id="path965"
           inkscape:connector-curvature="0" />
        <path
           d="m -732.94365,102.92992 h -3.51082 l -0.58092,1.67964 h -1.85644 l 3.16984,-8.827565 h 2.0585 l 3.16984,8.827565 h -1.86907 z m -0.47989,-1.41443 -1.27552,-3.687622 -1.27551,3.687622 z"
           style="font-style:normal;font-variant:normal;font-weight:600;font-stretch:normal;font-family:Poppins;-inkscape-font-specification:'Poppins Semi-Bold';fill:#01688e;fill-opacity:1;stroke-width:0.31572118"
           id="path967"
           inkscape:connector-curvature="0" />
        <path
           d="m -727.5385,103.20776 h 2.90463 v 1.4018 h -4.67267 v -8.814937 h 1.76804 z"
           style="font-style:normal;font-variant:normal;font-weight:600;font-stretch:normal;font-family:Poppins;-inkscape-font-specification:'Poppins Semi-Bold';fill:#01688e;fill-opacity:1;stroke-width:0.31572118"
           id="path969"
           inkscape:connector-curvature="0" />
      </g>
    </g>
  </g>
</svg>
