<?xml version="1.0" encoding="UTF-8" standalone="no"?>
<svg
   xmlns:dc="http://purl.org/dc/elements/1.1/"
   xmlns:cc="http://creativecommons.org/ns#"
   xmlns:rdf="http://www.w3.org/1999/02/22-rdf-syntax-ns#"
   xmlns:svg="http://www.w3.org/2000/svg"
   xmlns="http://www.w3.org/2000/svg"
   xmlns:sodipodi="http://sodipodi.sourceforge.net/DTD/sodipodi-0.dtd"
   xmlns:inkscape="http://www.inkscape.org/namespaces/inkscape"
   height="20"
   id="Layer_1"
   version="1.1"
   viewBox="0 0 20 20"
   width="20"
   xml:space="preserve"
   sodipodi:docname="341106_rss_icon.svg"
   inkscape:version="0.92.5 (2060ec1f9f, 2020-04-08)"><metadata
     id="metadata12"><rdf:RDF><cc:Work
         rdf:about=""><dc:format>image/svg+xml</dc:format><dc:type
           rdf:resource="http://purl.org/dc/dcmitype/StillImage" /><dc:title></dc:title></cc:Work></rdf:RDF></metadata><sodipodi:namedview
     pagecolor="#ffffff"
     bordercolor="#666666"
     borderopacity="1"
     objecttolerance="10"
     gridtolerance="10"
     guidetolerance="10"
     inkscape:pageopacity="0"
     inkscape:pageshadow="2"
     inkscape:window-width="1920"
     inkscape:window-height="1051"
     id="namedview10"
     showgrid="false"
     fit-margin-top="0"
     fit-margin-left="0"
     fit-margin-right="0"
     fit-margin-bottom="0"
     inkscape:zoom="2.6074563"
     inkscape:cx="103.55548"
     inkscape:cy="75.596586"
     inkscape:window-x="1920"
     inkscape:window-y="0"
     inkscape:window-maximized="1"
     inkscape:current-layer="Layer_1" /><defs
     id="defs19" /><g
     id="g3021"
     transform="scale(0.0390625)" /><g
     id="Layer_1_1_"
     transform="scale(0.0390625)" /><g
     id="Layer_1_1_-7"
     transform="matrix(0.0390625,0,0,0.0390625,-32.018438,-2.41914)" /><g
     id="g2989"
     transform="scale(0.0390625)"><rect
       height="512"
       id="rect2989"
       rx="70"
       ry="70"
       style="fill:#ea7819;fill-opacity:1;stroke:none"
       transform="scale(-1)"
       width="512"
       x="-512"
       y="-512" /><path
       d="m 81.05643,267.04958 c 43.7041,0 84.78879,17.07214 115.66407,48.12395 30.93179,31.05179 47.96156,72.41184 47.96156,116.44072 h 67.34951 c 0,-127.8857 -103.61898,-231.92124 -230.97514,-231.92124 z M 81.1624,147.65054 c 155.7603,0 282.48808,127.4197 282.48808,284.04844 H 431 C 431,237.92528 274.05354,80.30102 81.1624,80.30102 Z m 93.13421,236.99769 c 0,25.75647 -20.89183,46.6483 -46.6483,46.6483 C 101.89184,431.29653 81,410.41176 81,384.64823 c 0,-25.7706 20.88477,-46.64831 46.64124,-46.64831 25.75649,0 46.65537,20.87771 46.65537,46.64831 z"
       id="path3844"
       style="fill:#ffffff"
       inkscape:connector-curvature="0" /></g></svg>