<?xml version="1.0" encoding="UTF-8" standalone="no"?>
<svg
   xmlns:dc="http://purl.org/dc/elements/1.1/"
   xmlns:cc="http://creativecommons.org/ns#"
   xmlns:rdf="http://www.w3.org/1999/02/22-rdf-syntax-ns#"
   xmlns:svg="http://www.w3.org/2000/svg"
   xmlns="http://www.w3.org/2000/svg"
   xmlns:sodipodi="http://sodipodi.sourceforge.net/DTD/sodipodi-0.dtd"
   xmlns:inkscape="http://www.inkscape.org/namespaces/inkscape"
   width="20"
   height="20.000099"
   viewBox="74.428 1369.145 19.999999 20.000099"
   version="1.1"
   id="svg4"
   sodipodi:docname="spotify-1.svg"
   inkscape:version="0.92.5 (2060ec1f9f, 2020-04-08)">
  <metadata
     id="metadata10">
    <rdf:RDF>
      <cc:Work
         rdf:about="">
        <dc:format>image/svg+xml</dc:format>
        <dc:type
           rdf:resource="http://purl.org/dc/dcmitype/StillImage" />
        <dc:title></dc:title>
      </cc:Work>
    </rdf:RDF>
  </metadata>
  <defs
     id="defs8" />
  <sodipodi:namedview
     pagecolor="#ffffff"
     bordercolor="#666666"
     borderopacity="1"
     objecttolerance="10"
     gridtolerance="10"
     guidetolerance="10"
     inkscape:pageopacity="0"
     inkscape:pageshadow="2"
     inkscape:window-width="960"
     inkscape:window-height="1013"
     id="namedview6"
     showgrid="false"
     fit-margin-top="0"
     fit-margin-left="0"
     fit-margin-right="0"
     fit-margin-bottom="0"
     inkscape:zoom="0.26277981"
     inkscape:cx="604.85159"
     inkscape:cy="383.37557"
     inkscape:window-x="0"
     inkscape:window-y="330"
     inkscape:window-maximized="0"
     inkscape:current-layer="svg4" />
  <path
     d="m 84.428,1369.145 c -5.522729,0 -10,4.4771 -10,9.9999 0,5.5233 4.477271,10.0002 10,10.0002 5.522975,0 10,-4.4769 10,-10.0002 0,-5.5224 -4.476793,-9.9994 -10.000123,-9.9994 z m 4.585937,14.4227 c -0.179598,0.2946 -0.563392,0.3869 -0.857032,0.2074 -2.348257,-1.4352 -5.303972,-1.7594 -8.784859,-0.9643 -0.335428,0.077 -0.669785,-0.1333 -0.746202,-0.4687 -0.07679,-0.3354 0.132542,-0.6697 0.468809,-0.7462 3.809273,-0.8708 7.076772,-0.496 9.712576,1.1146 0.293756,0.1804 0.386892,0.5637 0.206585,0.8574 z m 1.223978,-2.7225 c -0.226169,0.3669 -0.705971,0.4821 -1.072447,0.2567 -2.68739,-1.6519 -6.785288,-2.1304 -9.964653,-1.1653 -0.412337,0.1245 -0.847834,-0.1079 -0.972979,-0.5195 -0.124189,-0.4123 0.108311,-0.847 0.519925,-0.9724 3.631709,-1.1019 8.146469,-0.5681 11.233293,1.3288 0.366605,0.2256 0.482429,0.7057 0.256738,1.0718 z m 0.105083,-2.8354 c -3.223439,-1.9143 -8.540423,-2.0903 -11.617577,-1.1564 -0.494125,0.1499 -1.016677,-0.129 -1.166421,-0.6232 -0.149744,-0.4943 0.128966,-1.0165 0.623452,-1.1668 3.532358,-1.0723 9.404497,-0.8651 13.115128,1.3377 0.444456,0.2638 0.590263,0.8378 0.326831,1.2817 -0.262709,0.4444 -0.838281,0.5909 -1.281297,0.327 z"
     id="path2"
     inkscape:connector-curvature="0"
     style="fill:#2ebd59;stroke-width:0.00682361"
     sodipodi:nodetypes="cssscccccccccccccccccccccccccc" />
</svg>
